%TF.GenerationSoftware,KiCad,Pcbnew,(6.0.2)*%
%TF.CreationDate,2022-06-23T10:44:52-05:00*%
%TF.ProjectId,ESP32,45535033-322e-46b6-9963-61645f706362,rev?*%
%TF.SameCoordinates,Original*%
%TF.FileFunction,Soldermask,Top*%
%TF.FilePolarity,Negative*%
%FSLAX46Y46*%
G04 Gerber Fmt 4.6, Leading zero omitted, Abs format (unit mm)*
G04 Created by KiCad (PCBNEW (6.0.2)) date 2022-06-23 10:44:52*
%MOMM*%
%LPD*%
G01*
G04 APERTURE LIST*
G04 Aperture macros list*
%AMRoundRect*
0 Rectangle with rounded corners*
0 $1 Rounding radius*
0 $2 $3 $4 $5 $6 $7 $8 $9 X,Y pos of 4 corners*
0 Add a 4 corners polygon primitive as box body*
4,1,4,$2,$3,$4,$5,$6,$7,$8,$9,$2,$3,0*
0 Add four circle primitives for the rounded corners*
1,1,$1+$1,$2,$3*
1,1,$1+$1,$4,$5*
1,1,$1+$1,$6,$7*
1,1,$1+$1,$8,$9*
0 Add four rect primitives between the rounded corners*
20,1,$1+$1,$2,$3,$4,$5,0*
20,1,$1+$1,$4,$5,$6,$7,0*
20,1,$1+$1,$6,$7,$8,$9,0*
20,1,$1+$1,$8,$9,$2,$3,0*%
G04 Aperture macros list end*
%ADD10C,2.075000*%
%ADD11RoundRect,0.250000X0.450000X-0.350000X0.450000X0.350000X-0.450000X0.350000X-0.450000X-0.350000X0*%
%ADD12RoundRect,0.250000X-0.450000X0.350000X-0.450000X-0.350000X0.450000X-0.350000X0.450000X0.350000X0*%
%ADD13RoundRect,0.250000X0.600000X0.725000X-0.600000X0.725000X-0.600000X-0.725000X0.600000X-0.725000X0*%
%ADD14O,1.700000X1.950000*%
%ADD15R,1.473200X0.355600*%
%ADD16R,3.500000X3.500000*%
%ADD17RoundRect,0.750000X-1.000000X0.750000X-1.000000X-0.750000X1.000000X-0.750000X1.000000X0.750000X0*%
%ADD18RoundRect,0.875000X-0.875000X0.875000X-0.875000X-0.875000X0.875000X-0.875000X0.875000X0.875000X0*%
%ADD19R,0.900000X2.000000*%
%ADD20R,2.000000X0.900000*%
%ADD21R,5.000000X5.000000*%
%ADD22RoundRect,0.250000X-0.337500X-0.475000X0.337500X-0.475000X0.337500X0.475000X-0.337500X0.475000X0*%
%ADD23R,3.000000X3.000000*%
%ADD24C,3.000000*%
%ADD25RoundRect,0.250000X-0.725000X0.600000X-0.725000X-0.600000X0.725000X-0.600000X0.725000X0.600000X0*%
%ADD26O,1.950000X1.700000*%
%ADD27R,1.500000X1.000000*%
%ADD28RoundRect,0.250000X0.337500X0.475000X-0.337500X0.475000X-0.337500X-0.475000X0.337500X-0.475000X0*%
%ADD29R,3.000000X3.600000*%
%ADD30R,3.000000X2.600000*%
%ADD31R,1.050000X1.500000*%
%ADD32O,1.050000X1.500000*%
%ADD33R,1.717500X1.800000*%
%ADD34O,1.717500X1.800000*%
%ADD35R,1.500000X2.000000*%
%ADD36R,3.800000X2.000000*%
%ADD37R,1.700000X1.700000*%
%ADD38O,1.700000X1.700000*%
%ADD39C,1.923500*%
%ADD40C,1.000000*%
%ADD41R,0.700000X1.900000*%
%ADD42R,1.700000X1.800000*%
%ADD43R,1.400000X2.600000*%
%ADD44C,2.100000*%
%ADD45C,1.750000*%
%ADD46RoundRect,0.250000X-1.100000X0.412500X-1.100000X-0.412500X1.100000X-0.412500X1.100000X0.412500X0*%
%ADD47RoundRect,0.150000X0.825000X0.150000X-0.825000X0.150000X-0.825000X-0.150000X0.825000X-0.150000X0*%
%ADD48R,0.900000X1.700000*%
%ADD49R,2.200000X2.200000*%
%ADD50O,2.200000X2.200000*%
%ADD51RoundRect,0.250000X-0.350000X-0.450000X0.350000X-0.450000X0.350000X0.450000X-0.350000X0.450000X0*%
%ADD52RoundRect,0.250000X0.350000X0.450000X-0.350000X0.450000X-0.350000X-0.450000X0.350000X-0.450000X0*%
%ADD53C,3.250000*%
%ADD54R,1.520000X1.520000*%
%ADD55C,1.520000*%
%ADD56RoundRect,0.250000X1.100000X-0.412500X1.100000X0.412500X-1.100000X0.412500X-1.100000X-0.412500X0*%
%ADD57RoundRect,0.250001X0.462499X0.624999X-0.462499X0.624999X-0.462499X-0.624999X0.462499X-0.624999X0*%
%ADD58RoundRect,0.250000X-0.412500X-1.100000X0.412500X-1.100000X0.412500X1.100000X-0.412500X1.100000X0*%
G04 APERTURE END LIST*
D10*
X115037500Y-83000000D02*
G75*
G03*
X115037500Y-83000000I-1037500J0D01*
G01*
X35037500Y-24000000D02*
G75*
G03*
X35037500Y-24000000I-1037500J0D01*
G01*
X35037500Y-83000000D02*
G75*
G03*
X35037500Y-83000000I-1037500J0D01*
G01*
X115037500Y-24000000D02*
G75*
G03*
X115037500Y-24000000I-1037500J0D01*
G01*
D11*
%TO.C,R17*%
X86850000Y-27000000D03*
X86850000Y-25000000D03*
%TD*%
D12*
%TO.C,R15*%
X66950000Y-53900000D03*
X66950000Y-55900000D03*
%TD*%
D13*
%TO.C,J3*%
X79050000Y-79000000D03*
D14*
X76550000Y-79000000D03*
X74050000Y-79000000D03*
%TD*%
D12*
%TO.C,R2*%
X54650000Y-68150000D03*
X54650000Y-70150000D03*
%TD*%
D15*
%TO.C,U4*%
X62979000Y-40794200D03*
X62979000Y-41454600D03*
X62979000Y-42089600D03*
X62979000Y-42750000D03*
X62979000Y-43410400D03*
X62979000Y-44045400D03*
X62979000Y-44705800D03*
X68821000Y-44705800D03*
X68821000Y-44045400D03*
X68821000Y-43410400D03*
X68821000Y-42750000D03*
X68821000Y-42089600D03*
X68821000Y-41454600D03*
X68821000Y-40794200D03*
%TD*%
D16*
%TO.C,J1*%
X41007500Y-34950000D03*
D17*
X41007500Y-28950000D03*
D18*
X36307500Y-31950000D03*
%TD*%
D12*
%TO.C,R16*%
X89500000Y-25000000D03*
X89500000Y-27000000D03*
%TD*%
D19*
%TO.C,U1*%
X38695000Y-64150000D03*
X39965000Y-64150000D03*
X41235000Y-64150000D03*
X42505000Y-64150000D03*
X43775000Y-64150000D03*
X45045000Y-64150000D03*
X46315000Y-64150000D03*
X47585000Y-64150000D03*
X48855000Y-64150000D03*
X50125000Y-64150000D03*
X51395000Y-64150000D03*
X52665000Y-64150000D03*
X53935000Y-64150000D03*
X55205000Y-64150000D03*
D20*
X56205000Y-61365000D03*
X56205000Y-60095000D03*
X56205000Y-58825000D03*
X56205000Y-57555000D03*
X56205000Y-56285000D03*
X56205000Y-55015000D03*
X56205000Y-53745000D03*
X56205000Y-52475000D03*
X56205000Y-51205000D03*
X56205000Y-49935000D03*
D19*
X55205000Y-47150000D03*
X53935000Y-47150000D03*
X52665000Y-47150000D03*
X51395000Y-47150000D03*
X50125000Y-47150000D03*
X48855000Y-47150000D03*
X47585000Y-47150000D03*
X46315000Y-47150000D03*
X45045000Y-47150000D03*
X43775000Y-47150000D03*
X42505000Y-47150000D03*
X41235000Y-47150000D03*
X39965000Y-47150000D03*
X38695000Y-47150000D03*
D21*
X46195000Y-56650000D03*
%TD*%
D12*
%TO.C,R12*%
X79550000Y-40750000D03*
X79550000Y-42750000D03*
%TD*%
D22*
%TO.C,C7*%
X68862500Y-38700000D03*
X70937500Y-38700000D03*
%TD*%
D23*
%TO.C,J12*%
X101640000Y-25350000D03*
D24*
X96560000Y-25350000D03*
%TD*%
D25*
%TO.C,J10*%
X74750000Y-63800000D03*
D26*
X74750000Y-66300000D03*
X74750000Y-68800000D03*
%TD*%
D27*
%TO.C,D3*%
X49350000Y-73400000D03*
X49350000Y-74800000D03*
X52850000Y-74800000D03*
X52850000Y-73400000D03*
%TD*%
D12*
%TO.C,R14*%
X45300000Y-39500000D03*
X45300000Y-41500000D03*
%TD*%
D28*
%TO.C,C6*%
X54137500Y-27250000D03*
X52062500Y-27250000D03*
%TD*%
D11*
%TO.C,R9*%
X41300000Y-41500000D03*
X41300000Y-39500000D03*
%TD*%
D12*
%TO.C,R13*%
X43300000Y-39500000D03*
X43300000Y-41500000D03*
%TD*%
D29*
%TO.C,BT1*%
X85128000Y-59200000D03*
D30*
X106528000Y-59200000D03*
%TD*%
D11*
%TO.C,R7*%
X48650000Y-70150000D03*
X48650000Y-68150000D03*
%TD*%
D31*
%TO.C,Q1*%
X89200000Y-32050000D03*
D32*
X87930000Y-32050000D03*
X86660000Y-32050000D03*
%TD*%
D25*
%TO.C,J5*%
X64850000Y-63800000D03*
D26*
X64850000Y-66300000D03*
X64850000Y-68800000D03*
%TD*%
D13*
%TO.C,J4*%
X68000000Y-79000000D03*
D14*
X65500000Y-79000000D03*
X63000000Y-79000000D03*
X60500000Y-79000000D03*
%TD*%
D13*
%TO.C,J2*%
X92600000Y-79000000D03*
D14*
X90100000Y-79000000D03*
X87600000Y-79000000D03*
X85100000Y-79000000D03*
%TD*%
D33*
%TO.C,U3*%
X48710000Y-24150000D03*
D34*
X51000000Y-24150000D03*
X53290000Y-24150000D03*
%TD*%
D35*
%TO.C,U2*%
X62900000Y-25300000D03*
D36*
X60600000Y-31600000D03*
D35*
X60600000Y-25300000D03*
X58300000Y-25300000D03*
%TD*%
D37*
%TO.C,J11*%
X32925000Y-39350000D03*
D38*
X35465000Y-39350000D03*
X38005000Y-39350000D03*
%TD*%
D11*
%TO.C,R6*%
X50650000Y-70150000D03*
X50650000Y-68150000D03*
%TD*%
D39*
%TO.C,J8*%
X72150000Y-24975000D03*
D40*
X80150000Y-24975000D03*
D41*
X72950000Y-35625000D03*
X74050000Y-35625000D03*
X75150000Y-35625000D03*
X76250000Y-35625000D03*
X77350000Y-35625000D03*
X78450000Y-35625000D03*
X79550000Y-35625000D03*
X80650000Y-35625000D03*
X81750000Y-35625000D03*
D42*
X83300000Y-34575000D03*
X67800000Y-34575000D03*
D43*
X83050000Y-24975000D03*
X67350000Y-24975000D03*
%TD*%
D44*
%TO.C,CFG1*%
X54850000Y-80510000D03*
X47840000Y-80510000D03*
D45*
X53600000Y-83000000D03*
X49100000Y-83000000D03*
%TD*%
D46*
%TO.C,C3*%
X58600000Y-34387500D03*
X58600000Y-37512500D03*
%TD*%
D40*
%TO.C,Y1*%
X80750000Y-71100000D03*
X80750000Y-68560000D03*
%TD*%
D47*
%TO.C,U5*%
X76175000Y-55905000D03*
X76175000Y-54635000D03*
X76175000Y-53365000D03*
X76175000Y-52095000D03*
X71225000Y-52095000D03*
X71225000Y-53365000D03*
X71225000Y-54635000D03*
X71225000Y-55905000D03*
%TD*%
D48*
%TO.C,RST2*%
X35200009Y-35749992D03*
X31800009Y-35749992D03*
%TD*%
D22*
%TO.C,C5*%
X47962500Y-27250000D03*
X50037500Y-27250000D03*
%TD*%
D49*
%TO.C,D4*%
X87350000Y-37820000D03*
D50*
X87350000Y-47980000D03*
%TD*%
D51*
%TO.C,R1*%
X38850000Y-70950000D03*
X40850000Y-70950000D03*
%TD*%
D52*
%TO.C,R3*%
X36650000Y-73900000D03*
X34650000Y-73900000D03*
%TD*%
D12*
%TO.C,R4*%
X46650000Y-68150000D03*
X46650000Y-70150000D03*
%TD*%
D53*
%TO.C,J9*%
X97920001Y-77869999D03*
X108080001Y-77869999D03*
D54*
X103020001Y-68979999D03*
D55*
X101530001Y-71519999D03*
X105560001Y-68979999D03*
X104070001Y-71519999D03*
%TD*%
D56*
%TO.C,C4*%
X62150000Y-37512500D03*
X62150000Y-34387500D03*
%TD*%
D57*
%TO.C,D2*%
X41987500Y-74050000D03*
X39012500Y-74050000D03*
%TD*%
%TO.C,D1*%
X59587500Y-74100000D03*
X56612500Y-74100000D03*
%TD*%
D51*
%TO.C,R5*%
X63050000Y-51200000D03*
X65050000Y-51200000D03*
%TD*%
D25*
%TO.C,J6*%
X69800000Y-63800000D03*
D26*
X69800000Y-66300000D03*
X69800000Y-68800000D03*
%TD*%
D22*
%TO.C,C2*%
X52962500Y-31350000D03*
X55037500Y-31350000D03*
%TD*%
D58*
%TO.C,C1*%
X47387500Y-30750000D03*
X50512500Y-30750000D03*
%TD*%
D44*
%TO.C,RST1*%
X37790000Y-80510000D03*
X44800000Y-80510000D03*
D45*
X43550000Y-83000000D03*
X39050000Y-83000000D03*
%TD*%
D12*
%TO.C,R11*%
X52200000Y-37050000D03*
X52200000Y-39050000D03*
%TD*%
D24*
%TO.C,K1*%
X98600000Y-48200000D03*
X92600000Y-34000000D03*
X104600000Y-34000000D03*
X104600000Y-46200000D03*
X92600000Y-46200000D03*
%TD*%
D12*
%TO.C,R10*%
X54300000Y-37050000D03*
X54300000Y-39050000D03*
%TD*%
D37*
%TO.C,J7*%
X114675000Y-29775000D03*
D38*
X112135000Y-29775000D03*
X114675000Y-32315000D03*
X112135000Y-32315000D03*
X114675000Y-34855000D03*
X112135000Y-34855000D03*
X114675000Y-37395000D03*
X112135000Y-37395000D03*
X114675000Y-39935000D03*
X112135000Y-39935000D03*
X114675000Y-42475000D03*
X112135000Y-42475000D03*
X114675000Y-45015000D03*
X112135000Y-45015000D03*
X114675000Y-47555000D03*
X112135000Y-47555000D03*
X114675000Y-50095000D03*
X112135000Y-50095000D03*
X114675000Y-52635000D03*
X112135000Y-52635000D03*
X114675000Y-55175000D03*
X112135000Y-55175000D03*
X114675000Y-57715000D03*
X112135000Y-57715000D03*
X114675000Y-60255000D03*
X112135000Y-60255000D03*
X114675000Y-62795000D03*
X112135000Y-62795000D03*
X114675000Y-65335000D03*
X112135000Y-65335000D03*
X114675000Y-67875000D03*
X112135000Y-67875000D03*
X114675000Y-70415000D03*
X112135000Y-70415000D03*
X114675000Y-72955000D03*
X112135000Y-72955000D03*
X114675000Y-75495000D03*
X112135000Y-75495000D03*
X114675000Y-78035000D03*
X112135000Y-78035000D03*
%TD*%
M02*
