%TF.GenerationSoftware,KiCad,Pcbnew,(6.0.2)*%
%TF.CreationDate,2022-06-23T10:44:51-05:00*%
%TF.ProjectId,ESP32,45535033-322e-46b6-9963-61645f706362,rev?*%
%TF.SameCoordinates,Original*%
%TF.FileFunction,Paste,Top*%
%TF.FilePolarity,Positive*%
%FSLAX46Y46*%
G04 Gerber Fmt 4.6, Leading zero omitted, Abs format (unit mm)*
G04 Created by KiCad (PCBNEW (6.0.2)) date 2022-06-23 10:44:51*
%MOMM*%
%LPD*%
G01*
G04 APERTURE LIST*
G04 Aperture macros list*
%AMRoundRect*
0 Rectangle with rounded corners*
0 $1 Rounding radius*
0 $2 $3 $4 $5 $6 $7 $8 $9 X,Y pos of 4 corners*
0 Add a 4 corners polygon primitive as box body*
4,1,4,$2,$3,$4,$5,$6,$7,$8,$9,$2,$3,0*
0 Add four circle primitives for the rounded corners*
1,1,$1+$1,$2,$3*
1,1,$1+$1,$4,$5*
1,1,$1+$1,$6,$7*
1,1,$1+$1,$8,$9*
0 Add four rect primitives between the rounded corners*
20,1,$1+$1,$2,$3,$4,$5,0*
20,1,$1+$1,$4,$5,$6,$7,0*
20,1,$1+$1,$6,$7,$8,$9,0*
20,1,$1+$1,$8,$9,$2,$3,0*%
G04 Aperture macros list end*
%ADD10RoundRect,0.250000X0.450000X-0.350000X0.450000X0.350000X-0.450000X0.350000X-0.450000X-0.350000X0*%
%ADD11RoundRect,0.250000X-0.450000X0.350000X-0.450000X-0.350000X0.450000X-0.350000X0.450000X0.350000X0*%
%ADD12R,1.473200X0.355600*%
%ADD13R,0.900000X2.000000*%
%ADD14R,2.000000X0.900000*%
%ADD15R,5.000000X5.000000*%
%ADD16RoundRect,0.250000X-0.337500X-0.475000X0.337500X-0.475000X0.337500X0.475000X-0.337500X0.475000X0*%
%ADD17R,1.500000X1.000000*%
%ADD18RoundRect,0.250000X0.337500X0.475000X-0.337500X0.475000X-0.337500X-0.475000X0.337500X-0.475000X0*%
%ADD19R,3.000000X3.600000*%
%ADD20R,3.000000X2.600000*%
%ADD21R,1.500000X2.000000*%
%ADD22R,3.800000X2.000000*%
%ADD23R,0.700000X1.900000*%
%ADD24R,1.700000X1.800000*%
%ADD25R,1.400000X2.600000*%
%ADD26RoundRect,0.250000X-1.100000X0.412500X-1.100000X-0.412500X1.100000X-0.412500X1.100000X0.412500X0*%
%ADD27RoundRect,0.150000X0.825000X0.150000X-0.825000X0.150000X-0.825000X-0.150000X0.825000X-0.150000X0*%
%ADD28R,0.900000X1.700000*%
%ADD29RoundRect,0.250000X-0.350000X-0.450000X0.350000X-0.450000X0.350000X0.450000X-0.350000X0.450000X0*%
%ADD30RoundRect,0.250000X0.350000X0.450000X-0.350000X0.450000X-0.350000X-0.450000X0.350000X-0.450000X0*%
%ADD31RoundRect,0.250000X1.100000X-0.412500X1.100000X0.412500X-1.100000X0.412500X-1.100000X-0.412500X0*%
%ADD32RoundRect,0.250001X0.462499X0.624999X-0.462499X0.624999X-0.462499X-0.624999X0.462499X-0.624999X0*%
%ADD33RoundRect,0.250000X-0.412500X-1.100000X0.412500X-1.100000X0.412500X1.100000X-0.412500X1.100000X0*%
G04 APERTURE END LIST*
D10*
%TO.C,R17*%
X86850000Y-27000000D03*
X86850000Y-25000000D03*
%TD*%
D11*
%TO.C,R15*%
X66950000Y-53900000D03*
X66950000Y-55900000D03*
%TD*%
%TO.C,R2*%
X54650000Y-68150000D03*
X54650000Y-70150000D03*
%TD*%
D12*
%TO.C,U4*%
X62979000Y-40794200D03*
X62979000Y-41454600D03*
X62979000Y-42089600D03*
X62979000Y-42750000D03*
X62979000Y-43410400D03*
X62979000Y-44045400D03*
X62979000Y-44705800D03*
X68821000Y-44705800D03*
X68821000Y-44045400D03*
X68821000Y-43410400D03*
X68821000Y-42750000D03*
X68821000Y-42089600D03*
X68821000Y-41454600D03*
X68821000Y-40794200D03*
%TD*%
D11*
%TO.C,R16*%
X89500000Y-25000000D03*
X89500000Y-27000000D03*
%TD*%
D13*
%TO.C,U1*%
X38695000Y-64150000D03*
X39965000Y-64150000D03*
X41235000Y-64150000D03*
X42505000Y-64150000D03*
X43775000Y-64150000D03*
X45045000Y-64150000D03*
X46315000Y-64150000D03*
X47585000Y-64150000D03*
X48855000Y-64150000D03*
X50125000Y-64150000D03*
X51395000Y-64150000D03*
X52665000Y-64150000D03*
X53935000Y-64150000D03*
X55205000Y-64150000D03*
D14*
X56205000Y-61365000D03*
X56205000Y-60095000D03*
X56205000Y-58825000D03*
X56205000Y-57555000D03*
X56205000Y-56285000D03*
X56205000Y-55015000D03*
X56205000Y-53745000D03*
X56205000Y-52475000D03*
X56205000Y-51205000D03*
X56205000Y-49935000D03*
D13*
X55205000Y-47150000D03*
X53935000Y-47150000D03*
X52665000Y-47150000D03*
X51395000Y-47150000D03*
X50125000Y-47150000D03*
X48855000Y-47150000D03*
X47585000Y-47150000D03*
X46315000Y-47150000D03*
X45045000Y-47150000D03*
X43775000Y-47150000D03*
X42505000Y-47150000D03*
X41235000Y-47150000D03*
X39965000Y-47150000D03*
X38695000Y-47150000D03*
D15*
X46195000Y-56650000D03*
%TD*%
D11*
%TO.C,R12*%
X79550000Y-40750000D03*
X79550000Y-42750000D03*
%TD*%
D16*
%TO.C,C7*%
X68862500Y-38700000D03*
X70937500Y-38700000D03*
%TD*%
D17*
%TO.C,D3*%
X49350000Y-73400000D03*
X49350000Y-74800000D03*
X52850000Y-74800000D03*
X52850000Y-73400000D03*
%TD*%
D11*
%TO.C,R14*%
X45300000Y-39500000D03*
X45300000Y-41500000D03*
%TD*%
D18*
%TO.C,C6*%
X54137500Y-27250000D03*
X52062500Y-27250000D03*
%TD*%
D10*
%TO.C,R9*%
X41300000Y-41500000D03*
X41300000Y-39500000D03*
%TD*%
D11*
%TO.C,R13*%
X43300000Y-39500000D03*
X43300000Y-41500000D03*
%TD*%
D19*
%TO.C,BT1*%
X85128000Y-59200000D03*
D20*
X106528000Y-59200000D03*
%TD*%
D10*
%TO.C,R7*%
X48650000Y-70150000D03*
X48650000Y-68150000D03*
%TD*%
D21*
%TO.C,U2*%
X62900000Y-25300000D03*
D22*
X60600000Y-31600000D03*
D21*
X60600000Y-25300000D03*
X58300000Y-25300000D03*
%TD*%
D10*
%TO.C,R6*%
X50650000Y-70150000D03*
X50650000Y-68150000D03*
%TD*%
D23*
%TO.C,J8*%
X72950000Y-35625000D03*
X74050000Y-35625000D03*
X75150000Y-35625000D03*
X76250000Y-35625000D03*
X77350000Y-35625000D03*
X78450000Y-35625000D03*
X79550000Y-35625000D03*
X80650000Y-35625000D03*
X81750000Y-35625000D03*
D24*
X83300000Y-34575000D03*
X67800000Y-34575000D03*
D25*
X83050000Y-24975000D03*
X67350000Y-24975000D03*
%TD*%
D26*
%TO.C,C3*%
X58600000Y-34387500D03*
X58600000Y-37512500D03*
%TD*%
D27*
%TO.C,U5*%
X76175000Y-55905000D03*
X76175000Y-54635000D03*
X76175000Y-53365000D03*
X76175000Y-52095000D03*
X71225000Y-52095000D03*
X71225000Y-53365000D03*
X71225000Y-54635000D03*
X71225000Y-55905000D03*
%TD*%
D28*
%TO.C,RST2*%
X35200009Y-35749992D03*
X31800009Y-35749992D03*
%TD*%
D16*
%TO.C,C5*%
X47962500Y-27250000D03*
X50037500Y-27250000D03*
%TD*%
D29*
%TO.C,R1*%
X38850000Y-70950000D03*
X40850000Y-70950000D03*
%TD*%
D30*
%TO.C,R3*%
X36650000Y-73900000D03*
X34650000Y-73900000D03*
%TD*%
D11*
%TO.C,R4*%
X46650000Y-68150000D03*
X46650000Y-70150000D03*
%TD*%
D31*
%TO.C,C4*%
X62150000Y-37512500D03*
X62150000Y-34387500D03*
%TD*%
D32*
%TO.C,D2*%
X41987500Y-74050000D03*
X39012500Y-74050000D03*
%TD*%
%TO.C,D1*%
X59587500Y-74100000D03*
X56612500Y-74100000D03*
%TD*%
D29*
%TO.C,R5*%
X63050000Y-51200000D03*
X65050000Y-51200000D03*
%TD*%
D16*
%TO.C,C2*%
X52962500Y-31350000D03*
X55037500Y-31350000D03*
%TD*%
D33*
%TO.C,C1*%
X47387500Y-30750000D03*
X50512500Y-30750000D03*
%TD*%
D11*
%TO.C,R11*%
X52200000Y-37050000D03*
X52200000Y-39050000D03*
%TD*%
%TO.C,R10*%
X54300000Y-37050000D03*
X54300000Y-39050000D03*
%TD*%
M02*
