%TF.GenerationSoftware,KiCad,Pcbnew,(6.0.2)*%
%TF.CreationDate,2022-06-23T10:44:52-05:00*%
%TF.ProjectId,ESP32,45535033-322e-46b6-9963-61645f706362,rev?*%
%TF.SameCoordinates,Original*%
%TF.FileFunction,Legend,Bot*%
%TF.FilePolarity,Positive*%
%FSLAX46Y46*%
G04 Gerber Fmt 4.6, Leading zero omitted, Abs format (unit mm)*
G04 Created by KiCad (PCBNEW (6.0.2)) date 2022-06-23 10:44:52*
%MOMM*%
%LPD*%
G01*
G04 APERTURE LIST*
%ADD10C,0.127000*%
%ADD11C,0.150000*%
%ADD12C,0.120000*%
G04 APERTURE END LIST*
D10*
X60022301Y-51304795D02*
X59913444Y-51341081D01*
X59732015Y-51341081D01*
X59659444Y-51304795D01*
X59623158Y-51268509D01*
X59586872Y-51195938D01*
X59586872Y-51123367D01*
X59623158Y-51050795D01*
X59659444Y-51014509D01*
X59732015Y-50978224D01*
X59877158Y-50941938D01*
X59949729Y-50905652D01*
X59986015Y-50869367D01*
X60022301Y-50796795D01*
X60022301Y-50724224D01*
X59986015Y-50651652D01*
X59949729Y-50615367D01*
X59877158Y-50579081D01*
X59695729Y-50579081D01*
X59586872Y-50615367D01*
X59260301Y-51341081D02*
X59260301Y-50579081D01*
X59006301Y-51123367D01*
X58752301Y-50579081D01*
X58752301Y-51341081D01*
X58570872Y-51413652D02*
X57990301Y-51413652D01*
X57808872Y-51341081D02*
X57808872Y-50579081D01*
X57808872Y-50941938D02*
X57373444Y-50941938D01*
X57373444Y-51341081D02*
X57373444Y-50579081D01*
X57010586Y-51341081D02*
X57010586Y-50833081D01*
X57010586Y-50579081D02*
X57046872Y-50615367D01*
X57010586Y-50651652D01*
X56974301Y-50615367D01*
X57010586Y-50579081D01*
X57010586Y-50651652D01*
X56321158Y-51341081D02*
X56321158Y-50579081D01*
X56321158Y-51304795D02*
X56393729Y-51341081D01*
X56538872Y-51341081D01*
X56611444Y-51304795D01*
X56647729Y-51268509D01*
X56684015Y-51195938D01*
X56684015Y-50978224D01*
X56647729Y-50905652D01*
X56611444Y-50869367D01*
X56538872Y-50833081D01*
X56393729Y-50833081D01*
X56321158Y-50869367D01*
X55958301Y-51341081D02*
X55958301Y-50833081D01*
X55958301Y-50978224D02*
X55922015Y-50905652D01*
X55885729Y-50869367D01*
X55813158Y-50833081D01*
X55740586Y-50833081D01*
X55377729Y-51341081D02*
X55450301Y-51304795D01*
X55486586Y-51268509D01*
X55522872Y-51195938D01*
X55522872Y-50978224D01*
X55486586Y-50905652D01*
X55450301Y-50869367D01*
X55377729Y-50833081D01*
X55268872Y-50833081D01*
X55196301Y-50869367D01*
X55160015Y-50905652D01*
X55123729Y-50978224D01*
X55123729Y-51195938D01*
X55160015Y-51268509D01*
X55196301Y-51304795D01*
X55268872Y-51341081D01*
X55377729Y-51341081D01*
X53998872Y-51631367D02*
X54035158Y-51595081D01*
X54107729Y-51486224D01*
X54144015Y-51413652D01*
X54180301Y-51304795D01*
X54216586Y-51123367D01*
X54216586Y-50978224D01*
X54180301Y-50796795D01*
X54144015Y-50687938D01*
X54107729Y-50615367D01*
X54035158Y-50506509D01*
X53998872Y-50470224D01*
X53744872Y-51304795D02*
X53636015Y-51341081D01*
X53454586Y-51341081D01*
X53382015Y-51304795D01*
X53345729Y-51268509D01*
X53309444Y-51195938D01*
X53309444Y-51123367D01*
X53345729Y-51050795D01*
X53382015Y-51014509D01*
X53454586Y-50978224D01*
X53599729Y-50941938D01*
X53672301Y-50905652D01*
X53708586Y-50869367D01*
X53744872Y-50796795D01*
X53744872Y-50724224D01*
X53708586Y-50651652D01*
X53672301Y-50615367D01*
X53599729Y-50579081D01*
X53418301Y-50579081D01*
X53309444Y-50615367D01*
X52982872Y-51341081D02*
X52982872Y-50833081D01*
X52982872Y-50579081D02*
X53019158Y-50615367D01*
X52982872Y-50651652D01*
X52946586Y-50615367D01*
X52982872Y-50579081D01*
X52982872Y-50651652D01*
X52656301Y-51304795D02*
X52583729Y-51341081D01*
X52438586Y-51341081D01*
X52366015Y-51304795D01*
X52329729Y-51232224D01*
X52329729Y-51195938D01*
X52366015Y-51123367D01*
X52438586Y-51087081D01*
X52547444Y-51087081D01*
X52620015Y-51050795D01*
X52656301Y-50978224D01*
X52656301Y-50941938D01*
X52620015Y-50869367D01*
X52547444Y-50833081D01*
X52438586Y-50833081D01*
X52366015Y-50869367D01*
X52112015Y-50833081D02*
X51821729Y-50833081D01*
X52003158Y-50579081D02*
X52003158Y-51232224D01*
X51966872Y-51304795D01*
X51894301Y-51341081D01*
X51821729Y-51341081D01*
X51277444Y-51304795D02*
X51350015Y-51341081D01*
X51495158Y-51341081D01*
X51567729Y-51304795D01*
X51604015Y-51232224D01*
X51604015Y-50941938D01*
X51567729Y-50869367D01*
X51495158Y-50833081D01*
X51350015Y-50833081D01*
X51277444Y-50869367D01*
X51241158Y-50941938D01*
X51241158Y-51014509D01*
X51604015Y-51087081D01*
X50914586Y-51341081D02*
X50914586Y-50833081D01*
X50914586Y-50905652D02*
X50878301Y-50869367D01*
X50805729Y-50833081D01*
X50696872Y-50833081D01*
X50624301Y-50869367D01*
X50588015Y-50941938D01*
X50588015Y-51341081D01*
X50588015Y-50941938D02*
X50551729Y-50869367D01*
X50479158Y-50833081D01*
X50370301Y-50833081D01*
X50297729Y-50869367D01*
X50261444Y-50941938D01*
X50261444Y-51341081D01*
X49572015Y-51341081D02*
X49572015Y-50941938D01*
X49608301Y-50869367D01*
X49680872Y-50833081D01*
X49826015Y-50833081D01*
X49898586Y-50869367D01*
X49572015Y-51304795D02*
X49644586Y-51341081D01*
X49826015Y-51341081D01*
X49898586Y-51304795D01*
X49934872Y-51232224D01*
X49934872Y-51159652D01*
X49898586Y-51087081D01*
X49826015Y-51050795D01*
X49644586Y-51050795D01*
X49572015Y-51014509D01*
X48302015Y-51341081D02*
X48302015Y-50579081D01*
X48302015Y-51304795D02*
X48374586Y-51341081D01*
X48519729Y-51341081D01*
X48592301Y-51304795D01*
X48628586Y-51268509D01*
X48664872Y-51195938D01*
X48664872Y-50978224D01*
X48628586Y-50905652D01*
X48592301Y-50869367D01*
X48519729Y-50833081D01*
X48374586Y-50833081D01*
X48302015Y-50869367D01*
X47648872Y-51304795D02*
X47721444Y-51341081D01*
X47866586Y-51341081D01*
X47939158Y-51304795D01*
X47975444Y-51232224D01*
X47975444Y-50941938D01*
X47939158Y-50869367D01*
X47866586Y-50833081D01*
X47721444Y-50833081D01*
X47648872Y-50869367D01*
X47612586Y-50941938D01*
X47612586Y-51014509D01*
X47975444Y-51087081D01*
X46705444Y-51341081D02*
X46705444Y-50833081D01*
X46705444Y-50905652D02*
X46669158Y-50869367D01*
X46596586Y-50833081D01*
X46487729Y-50833081D01*
X46415158Y-50869367D01*
X46378872Y-50941938D01*
X46378872Y-51341081D01*
X46378872Y-50941938D02*
X46342586Y-50869367D01*
X46270015Y-50833081D01*
X46161158Y-50833081D01*
X46088586Y-50869367D01*
X46052301Y-50941938D01*
X46052301Y-51341081D01*
X45580586Y-51341081D02*
X45653158Y-51304795D01*
X45689444Y-51268509D01*
X45725729Y-51195938D01*
X45725729Y-50978224D01*
X45689444Y-50905652D01*
X45653158Y-50869367D01*
X45580586Y-50833081D01*
X45471729Y-50833081D01*
X45399158Y-50869367D01*
X45362872Y-50905652D01*
X45326586Y-50978224D01*
X45326586Y-51195938D01*
X45362872Y-51268509D01*
X45399158Y-51304795D01*
X45471729Y-51341081D01*
X45580586Y-51341081D01*
X45000015Y-50833081D02*
X45000015Y-51341081D01*
X45000015Y-50905652D02*
X44963729Y-50869367D01*
X44891158Y-50833081D01*
X44782301Y-50833081D01*
X44709729Y-50869367D01*
X44673444Y-50941938D01*
X44673444Y-51341081D01*
X44310586Y-51341081D02*
X44310586Y-50833081D01*
X44310586Y-50579081D02*
X44346872Y-50615367D01*
X44310586Y-50651652D01*
X44274301Y-50615367D01*
X44310586Y-50579081D01*
X44310586Y-50651652D01*
X44056586Y-50833081D02*
X43766301Y-50833081D01*
X43947729Y-50579081D02*
X43947729Y-51232224D01*
X43911444Y-51304795D01*
X43838872Y-51341081D01*
X43766301Y-51341081D01*
X43403444Y-51341081D02*
X43476015Y-51304795D01*
X43512301Y-51268509D01*
X43548586Y-51195938D01*
X43548586Y-50978224D01*
X43512301Y-50905652D01*
X43476015Y-50869367D01*
X43403444Y-50833081D01*
X43294586Y-50833081D01*
X43222015Y-50869367D01*
X43185729Y-50905652D01*
X43149444Y-50978224D01*
X43149444Y-51195938D01*
X43185729Y-51268509D01*
X43222015Y-51304795D01*
X43294586Y-51341081D01*
X43403444Y-51341081D01*
X42822872Y-51341081D02*
X42822872Y-50833081D01*
X42822872Y-50978224D02*
X42786586Y-50905652D01*
X42750301Y-50869367D01*
X42677729Y-50833081D01*
X42605158Y-50833081D01*
X42060872Y-51304795D02*
X42133444Y-51341081D01*
X42278586Y-51341081D01*
X42351158Y-51304795D01*
X42387444Y-51232224D01*
X42387444Y-50941938D01*
X42351158Y-50869367D01*
X42278586Y-50833081D01*
X42133444Y-50833081D01*
X42060872Y-50869367D01*
X42024586Y-50941938D01*
X42024586Y-51014509D01*
X42387444Y-51087081D01*
X41589158Y-51341081D02*
X41661729Y-51304795D01*
X41698015Y-51268509D01*
X41734301Y-51195938D01*
X41734301Y-50978224D01*
X41698015Y-50905652D01*
X41661729Y-50869367D01*
X41589158Y-50833081D01*
X41480301Y-50833081D01*
X41407729Y-50869367D01*
X41371444Y-50905652D01*
X41335158Y-50978224D01*
X41335158Y-51195938D01*
X41371444Y-51268509D01*
X41407729Y-51304795D01*
X41480301Y-51341081D01*
X41589158Y-51341081D01*
X41081158Y-51631367D02*
X41044872Y-51595081D01*
X40972301Y-51486224D01*
X40936015Y-51413652D01*
X40899729Y-51304795D01*
X40863444Y-51123367D01*
X40863444Y-50978224D01*
X40899729Y-50796795D01*
X40936015Y-50687938D01*
X40972301Y-50615367D01*
X41044872Y-50506509D01*
X41081158Y-50470224D01*
X59986015Y-52567901D02*
X59986015Y-51805901D01*
X59804586Y-51805901D01*
X59695729Y-51842187D01*
X59623158Y-51914758D01*
X59586872Y-51987329D01*
X59550586Y-52132472D01*
X59550586Y-52241329D01*
X59586872Y-52386472D01*
X59623158Y-52459044D01*
X59695729Y-52531615D01*
X59804586Y-52567901D01*
X59986015Y-52567901D01*
X59224015Y-52567901D02*
X59224015Y-52059901D01*
X59224015Y-51805901D02*
X59260301Y-51842187D01*
X59224015Y-51878472D01*
X59187729Y-51842187D01*
X59224015Y-51805901D01*
X59224015Y-51878472D01*
X58897444Y-52531615D02*
X58824872Y-52567901D01*
X58679729Y-52567901D01*
X58607158Y-52531615D01*
X58570872Y-52459044D01*
X58570872Y-52422758D01*
X58607158Y-52350187D01*
X58679729Y-52313901D01*
X58788586Y-52313901D01*
X58861158Y-52277615D01*
X58897444Y-52205044D01*
X58897444Y-52168758D01*
X58861158Y-52096187D01*
X58788586Y-52059901D01*
X58679729Y-52059901D01*
X58607158Y-52096187D01*
X57954015Y-52531615D02*
X58026586Y-52567901D01*
X58171729Y-52567901D01*
X58244301Y-52531615D01*
X58280586Y-52459044D01*
X58280586Y-52168758D01*
X58244301Y-52096187D01*
X58171729Y-52059901D01*
X58026586Y-52059901D01*
X57954015Y-52096187D01*
X57917729Y-52168758D01*
X57917729Y-52241329D01*
X58280586Y-52313901D01*
X57591158Y-52059901D02*
X57591158Y-52567901D01*
X57591158Y-52132472D02*
X57554872Y-52096187D01*
X57482301Y-52059901D01*
X57373444Y-52059901D01*
X57300872Y-52096187D01*
X57264586Y-52168758D01*
X57264586Y-52567901D01*
X57627444Y-51878472D02*
X57591158Y-51842187D01*
X57518586Y-51805901D01*
X57373444Y-51878472D01*
X57300872Y-51842187D01*
X57264586Y-51805901D01*
X56792872Y-52567901D02*
X56865444Y-52531615D01*
X56901729Y-52495329D01*
X56938015Y-52422758D01*
X56938015Y-52205044D01*
X56901729Y-52132472D01*
X56865444Y-52096187D01*
X56792872Y-52059901D01*
X56684015Y-52059901D01*
X56611444Y-52096187D01*
X56575158Y-52132472D01*
X56538872Y-52205044D01*
X56538872Y-52422758D01*
X56575158Y-52495329D01*
X56611444Y-52531615D01*
X56684015Y-52567901D01*
X56792872Y-52567901D01*
X55631729Y-52567901D02*
X55631729Y-52059901D01*
X55631729Y-52205044D02*
X55595444Y-52132472D01*
X55559158Y-52096187D01*
X55486586Y-52059901D01*
X55414015Y-52059901D01*
X54869729Y-52531615D02*
X54942301Y-52567901D01*
X55087444Y-52567901D01*
X55160015Y-52531615D01*
X55196301Y-52459044D01*
X55196301Y-52168758D01*
X55160015Y-52096187D01*
X55087444Y-52059901D01*
X54942301Y-52059901D01*
X54869729Y-52096187D01*
X54833444Y-52168758D01*
X54833444Y-52241329D01*
X55196301Y-52313901D01*
X54180301Y-52567901D02*
X54180301Y-52168758D01*
X54216586Y-52096187D01*
X54289158Y-52059901D01*
X54434301Y-52059901D01*
X54506872Y-52096187D01*
X54180301Y-52531615D02*
X54252872Y-52567901D01*
X54434301Y-52567901D01*
X54506872Y-52531615D01*
X54543158Y-52459044D01*
X54543158Y-52386472D01*
X54506872Y-52313901D01*
X54434301Y-52277615D01*
X54252872Y-52277615D01*
X54180301Y-52241329D01*
X53708586Y-52567901D02*
X53781158Y-52531615D01*
X53817444Y-52459044D01*
X53817444Y-51805901D01*
X53418301Y-52567901D02*
X53418301Y-52059901D01*
X53418301Y-51805901D02*
X53454586Y-51842187D01*
X53418301Y-51878472D01*
X53382015Y-51842187D01*
X53418301Y-51805901D01*
X53418301Y-51878472D01*
X53128015Y-52059901D02*
X52728872Y-52059901D01*
X53128015Y-52567901D01*
X52728872Y-52567901D01*
X52112015Y-52567901D02*
X52112015Y-52168758D01*
X52148301Y-52096187D01*
X52220872Y-52059901D01*
X52366015Y-52059901D01*
X52438586Y-52096187D01*
X52112015Y-52531615D02*
X52184586Y-52567901D01*
X52366015Y-52567901D01*
X52438586Y-52531615D01*
X52474872Y-52459044D01*
X52474872Y-52386472D01*
X52438586Y-52313901D01*
X52366015Y-52277615D01*
X52184586Y-52277615D01*
X52112015Y-52241329D01*
X51422586Y-52567901D02*
X51422586Y-51805901D01*
X51422586Y-52531615D02*
X51495158Y-52567901D01*
X51640301Y-52567901D01*
X51712872Y-52531615D01*
X51749158Y-52495329D01*
X51785444Y-52422758D01*
X51785444Y-52205044D01*
X51749158Y-52132472D01*
X51712872Y-52096187D01*
X51640301Y-52059901D01*
X51495158Y-52059901D01*
X51422586Y-52096187D01*
X50950872Y-52567901D02*
X51023444Y-52531615D01*
X51059729Y-52495329D01*
X51096015Y-52422758D01*
X51096015Y-52205044D01*
X51059729Y-52132472D01*
X51023444Y-52096187D01*
X50950872Y-52059901D01*
X50842015Y-52059901D01*
X50769444Y-52096187D01*
X50733158Y-52132472D01*
X50696872Y-52205044D01*
X50696872Y-52422758D01*
X50733158Y-52495329D01*
X50769444Y-52531615D01*
X50842015Y-52567901D01*
X50950872Y-52567901D01*
X49789729Y-52059901D02*
X49789729Y-52821901D01*
X49789729Y-52096187D02*
X49717158Y-52059901D01*
X49572015Y-52059901D01*
X49499444Y-52096187D01*
X49463158Y-52132472D01*
X49426872Y-52205044D01*
X49426872Y-52422758D01*
X49463158Y-52495329D01*
X49499444Y-52531615D01*
X49572015Y-52567901D01*
X49717158Y-52567901D01*
X49789729Y-52531615D01*
X48991444Y-52567901D02*
X49064015Y-52531615D01*
X49100301Y-52495329D01*
X49136586Y-52422758D01*
X49136586Y-52205044D01*
X49100301Y-52132472D01*
X49064015Y-52096187D01*
X48991444Y-52059901D01*
X48882586Y-52059901D01*
X48810015Y-52096187D01*
X48773729Y-52132472D01*
X48737444Y-52205044D01*
X48737444Y-52422758D01*
X48773729Y-52495329D01*
X48810015Y-52531615D01*
X48882586Y-52567901D01*
X48991444Y-52567901D01*
X48410872Y-52567901D02*
X48410872Y-52059901D01*
X48410872Y-52205044D02*
X48374586Y-52132472D01*
X48338301Y-52096187D01*
X48265729Y-52059901D01*
X48193158Y-52059901D01*
X47939158Y-52495329D02*
X47902872Y-52531615D01*
X47939158Y-52567901D01*
X47975444Y-52531615D01*
X47939158Y-52495329D01*
X47939158Y-52567901D01*
X47939158Y-52096187D02*
X47902872Y-52132472D01*
X47939158Y-52168758D01*
X47975444Y-52132472D01*
X47939158Y-52096187D01*
X47939158Y-52168758D01*
X59986015Y-53794721D02*
X59986015Y-53032721D01*
X59550586Y-53794721D01*
X59550586Y-53032721D01*
X59187729Y-53794721D02*
X59187729Y-53286721D01*
X59187729Y-53032721D02*
X59224015Y-53069007D01*
X59187729Y-53105292D01*
X59151444Y-53069007D01*
X59187729Y-53032721D01*
X59187729Y-53105292D01*
X58498301Y-53758435D02*
X58570872Y-53794721D01*
X58716015Y-53794721D01*
X58788586Y-53758435D01*
X58824872Y-53722149D01*
X58861158Y-53649578D01*
X58861158Y-53431864D01*
X58824872Y-53359292D01*
X58788586Y-53323007D01*
X58716015Y-53286721D01*
X58570872Y-53286721D01*
X58498301Y-53323007D01*
X58062872Y-53794721D02*
X58135444Y-53758435D01*
X58171729Y-53722149D01*
X58208015Y-53649578D01*
X58208015Y-53431864D01*
X58171729Y-53359292D01*
X58135444Y-53323007D01*
X58062872Y-53286721D01*
X57954015Y-53286721D01*
X57881444Y-53323007D01*
X57845158Y-53359292D01*
X57808872Y-53431864D01*
X57808872Y-53649578D01*
X57845158Y-53722149D01*
X57881444Y-53758435D01*
X57954015Y-53794721D01*
X58062872Y-53794721D01*
X57373444Y-53794721D02*
X57446015Y-53758435D01*
X57482301Y-53685864D01*
X57482301Y-53032721D01*
X56756586Y-53794721D02*
X56756586Y-53395578D01*
X56792872Y-53323007D01*
X56865444Y-53286721D01*
X57010586Y-53286721D01*
X57083158Y-53323007D01*
X56756586Y-53758435D02*
X56829158Y-53794721D01*
X57010586Y-53794721D01*
X57083158Y-53758435D01*
X57119444Y-53685864D01*
X57119444Y-53613292D01*
X57083158Y-53540721D01*
X57010586Y-53504435D01*
X56829158Y-53504435D01*
X56756586Y-53468149D01*
X56865444Y-52996435D02*
X56974301Y-53105292D01*
X56430015Y-53758435D02*
X56357444Y-53794721D01*
X56212301Y-53794721D01*
X56139729Y-53758435D01*
X56103444Y-53685864D01*
X56103444Y-53649578D01*
X56139729Y-53577007D01*
X56212301Y-53540721D01*
X56321158Y-53540721D01*
X56393729Y-53504435D01*
X56430015Y-53431864D01*
X56430015Y-53395578D01*
X56393729Y-53323007D01*
X56321158Y-53286721D01*
X56212301Y-53286721D01*
X56139729Y-53323007D01*
X54688301Y-53867292D02*
X54760872Y-53831007D01*
X54833444Y-53758435D01*
X54942301Y-53649578D01*
X55014872Y-53613292D01*
X55087444Y-53613292D01*
X55051158Y-53794721D02*
X55123729Y-53758435D01*
X55196301Y-53685864D01*
X55232586Y-53540721D01*
X55232586Y-53286721D01*
X55196301Y-53141578D01*
X55123729Y-53069007D01*
X55051158Y-53032721D01*
X54906015Y-53032721D01*
X54833444Y-53069007D01*
X54760872Y-53141578D01*
X54724586Y-53286721D01*
X54724586Y-53540721D01*
X54760872Y-53685864D01*
X54833444Y-53758435D01*
X54906015Y-53794721D01*
X55051158Y-53794721D01*
X54398015Y-53722149D02*
X54361729Y-53758435D01*
X54398015Y-53794721D01*
X54434301Y-53758435D01*
X54398015Y-53722149D01*
X54398015Y-53794721D01*
X53454586Y-53794721D02*
X53454586Y-53032721D01*
X53454586Y-53395578D02*
X53019158Y-53395578D01*
X53019158Y-53794721D02*
X53019158Y-53032721D01*
X52656301Y-53722149D02*
X52620015Y-53758435D01*
X52656301Y-53794721D01*
X52692586Y-53758435D01*
X52656301Y-53722149D01*
X52656301Y-53794721D01*
X59623158Y-55021541D02*
X59986015Y-55021541D01*
X59986015Y-54259541D01*
X59042586Y-54513541D02*
X59042586Y-55021541D01*
X59369158Y-54513541D02*
X59369158Y-54912684D01*
X59332872Y-54985255D01*
X59260301Y-55021541D01*
X59151444Y-55021541D01*
X59078872Y-54985255D01*
X59042586Y-54948969D01*
X58679729Y-55021541D02*
X58679729Y-54513541D01*
X58679729Y-54259541D02*
X58716015Y-54295827D01*
X58679729Y-54332112D01*
X58643444Y-54295827D01*
X58679729Y-54259541D01*
X58679729Y-54332112D01*
X58353158Y-54985255D02*
X58280586Y-55021541D01*
X58135444Y-55021541D01*
X58062872Y-54985255D01*
X58026586Y-54912684D01*
X58026586Y-54876398D01*
X58062872Y-54803827D01*
X58135444Y-54767541D01*
X58244301Y-54767541D01*
X58316872Y-54731255D01*
X58353158Y-54658684D01*
X58353158Y-54622398D01*
X58316872Y-54549827D01*
X58244301Y-54513541D01*
X58135444Y-54513541D01*
X58062872Y-54549827D01*
X57119444Y-54622398D02*
X56865444Y-54622398D01*
X56756586Y-55021541D02*
X57119444Y-55021541D01*
X57119444Y-54259541D01*
X56756586Y-54259541D01*
X56538872Y-54513541D02*
X56248586Y-54513541D01*
X56430015Y-55021541D02*
X56430015Y-54368398D01*
X56393729Y-54295827D01*
X56321158Y-54259541D01*
X56248586Y-54259541D01*
X55994586Y-55021541D02*
X55994586Y-54513541D01*
X55994586Y-54658684D02*
X55958301Y-54586112D01*
X55922015Y-54549827D01*
X55849444Y-54513541D01*
X55776872Y-54513541D01*
X55196301Y-55021541D02*
X55196301Y-54622398D01*
X55232586Y-54549827D01*
X55305158Y-54513541D01*
X55450301Y-54513541D01*
X55522872Y-54549827D01*
X55196301Y-54985255D02*
X55268872Y-55021541D01*
X55450301Y-55021541D01*
X55522872Y-54985255D01*
X55559158Y-54912684D01*
X55559158Y-54840112D01*
X55522872Y-54767541D01*
X55450301Y-54731255D01*
X55268872Y-54731255D01*
X55196301Y-54694969D01*
X54833443Y-55021541D02*
X54833443Y-54513541D01*
X54760872Y-54223255D02*
X54869729Y-54332112D01*
X54470586Y-54513541D02*
X54470586Y-55021541D01*
X54470586Y-54586112D02*
X54434301Y-54549827D01*
X54361729Y-54513541D01*
X54252872Y-54513541D01*
X54180301Y-54549827D01*
X54144015Y-54622398D01*
X54144015Y-55021541D01*
X52837729Y-55021541D02*
X53200586Y-55021541D01*
X53200586Y-54259541D01*
X52583729Y-54948969D02*
X52547443Y-54985255D01*
X52583729Y-55021541D01*
X52620015Y-54985255D01*
X52583729Y-54948969D01*
X52583729Y-55021541D01*
X51241158Y-54295827D02*
X51313729Y-54259541D01*
X51422586Y-54259541D01*
X51531443Y-54295827D01*
X51604015Y-54368398D01*
X51640301Y-54440969D01*
X51676586Y-54586112D01*
X51676586Y-54694969D01*
X51640301Y-54840112D01*
X51604015Y-54912684D01*
X51531443Y-54985255D01*
X51422586Y-55021541D01*
X51350015Y-55021541D01*
X51241158Y-54985255D01*
X51204872Y-54948969D01*
X51204872Y-54694969D01*
X51350015Y-54694969D01*
X50878301Y-54948969D02*
X50842015Y-54985255D01*
X50878301Y-55021541D01*
X50914586Y-54985255D01*
X50878301Y-54948969D01*
X50878301Y-55021541D01*
X59986015Y-56248361D02*
X59986015Y-55486361D01*
X59695729Y-55486361D01*
X59623158Y-55522647D01*
X59586872Y-55558932D01*
X59550586Y-55631504D01*
X59550586Y-55740361D01*
X59586872Y-55812932D01*
X59623158Y-55849218D01*
X59695729Y-55885504D01*
X59986015Y-55885504D01*
X58897444Y-55740361D02*
X58897444Y-56248361D01*
X59224015Y-55740361D02*
X59224015Y-56139504D01*
X59187729Y-56212075D01*
X59115158Y-56248361D01*
X59006301Y-56248361D01*
X58933729Y-56212075D01*
X58897444Y-56175789D01*
X58244301Y-56212075D02*
X58316872Y-56248361D01*
X58462015Y-56248361D01*
X58534586Y-56212075D01*
X58570872Y-56139504D01*
X58570872Y-55849218D01*
X58534586Y-55776647D01*
X58462015Y-55740361D01*
X58316872Y-55740361D01*
X58244301Y-55776647D01*
X58208015Y-55849218D01*
X58208015Y-55921789D01*
X58570872Y-55994361D01*
X57881444Y-56248361D02*
X57881444Y-55486361D01*
X57881444Y-55776647D02*
X57808872Y-55740361D01*
X57663729Y-55740361D01*
X57591158Y-55776647D01*
X57554872Y-55812932D01*
X57518586Y-55885504D01*
X57518586Y-56103218D01*
X57554872Y-56175789D01*
X57591158Y-56212075D01*
X57663729Y-56248361D01*
X57808872Y-56248361D01*
X57881444Y-56212075D01*
X57083158Y-56248361D02*
X57155729Y-56212075D01*
X57192015Y-56139504D01*
X57192015Y-55486361D01*
X56466301Y-56248361D02*
X56466301Y-55849218D01*
X56502586Y-55776647D01*
X56575158Y-55740361D01*
X56720301Y-55740361D01*
X56792872Y-55776647D01*
X56466301Y-56212075D02*
X56538872Y-56248361D01*
X56720301Y-56248361D01*
X56792872Y-56212075D01*
X56829158Y-56139504D01*
X56829158Y-56066932D01*
X56792872Y-55994361D01*
X56720301Y-55958075D01*
X56538872Y-55958075D01*
X56466301Y-55921789D01*
X56067158Y-56212075D02*
X56067158Y-56248361D01*
X56103444Y-56320932D01*
X56139729Y-56357218D01*
X55160015Y-56248361D02*
X55160015Y-55486361D01*
X54906015Y-56030647D01*
X54652015Y-55486361D01*
X54652015Y-56248361D01*
X53998872Y-56212075D02*
X54071444Y-56248361D01*
X54216586Y-56248361D01*
X54289158Y-56212075D01*
X54325444Y-56139504D01*
X54325444Y-55849218D01*
X54289158Y-55776647D01*
X54216586Y-55740361D01*
X54071444Y-55740361D01*
X53998872Y-55776647D01*
X53962586Y-55849218D01*
X53962586Y-55921789D01*
X54325444Y-55994361D01*
X54071444Y-55450075D02*
X54180301Y-55558932D01*
X53708586Y-56248361D02*
X53309444Y-55740361D01*
X53708586Y-55740361D02*
X53309444Y-56248361D01*
X53019158Y-56248361D02*
X53019158Y-55740361D01*
X53019158Y-55486361D02*
X53055444Y-55522647D01*
X53019158Y-55558932D01*
X52982872Y-55522647D01*
X53019158Y-55486361D01*
X53019158Y-55558932D01*
X52329729Y-56212075D02*
X52402301Y-56248361D01*
X52547444Y-56248361D01*
X52620015Y-56212075D01*
X52656301Y-56175789D01*
X52692586Y-56103218D01*
X52692586Y-55885504D01*
X52656301Y-55812932D01*
X52620015Y-55776647D01*
X52547444Y-55740361D01*
X52402301Y-55740361D01*
X52329729Y-55776647D01*
X51894301Y-56248361D02*
X51966872Y-56212075D01*
X52003158Y-56175789D01*
X52039444Y-56103218D01*
X52039444Y-55885504D01*
X52003158Y-55812932D01*
X51966872Y-55776647D01*
X51894301Y-55740361D01*
X51785444Y-55740361D01*
X51712872Y-55776647D01*
X51676586Y-55812932D01*
X51640301Y-55885504D01*
X51640301Y-56103218D01*
X51676586Y-56175789D01*
X51712872Y-56212075D01*
X51785444Y-56248361D01*
X51894301Y-56248361D01*
X51313729Y-56175789D02*
X51277444Y-56212075D01*
X51313729Y-56248361D01*
X51350015Y-56212075D01*
X51313729Y-56175789D01*
X51313729Y-56248361D01*
X50406586Y-55558932D02*
X50370301Y-55522647D01*
X50297729Y-55486361D01*
X50116301Y-55486361D01*
X50043729Y-55522647D01*
X50007444Y-55558932D01*
X49971158Y-55631504D01*
X49971158Y-55704075D01*
X50007444Y-55812932D01*
X50442872Y-56248361D01*
X49971158Y-56248361D01*
X49499444Y-55486361D02*
X49426872Y-55486361D01*
X49354301Y-55522647D01*
X49318015Y-55558932D01*
X49281729Y-55631504D01*
X49245444Y-55776647D01*
X49245444Y-55958075D01*
X49281729Y-56103218D01*
X49318015Y-56175789D01*
X49354301Y-56212075D01*
X49426872Y-56248361D01*
X49499444Y-56248361D01*
X49572015Y-56212075D01*
X49608301Y-56175789D01*
X49644586Y-56103218D01*
X49680872Y-55958075D01*
X49680872Y-55776647D01*
X49644586Y-55631504D01*
X49608301Y-55558932D01*
X49572015Y-55522647D01*
X49499444Y-55486361D01*
X48955158Y-55558932D02*
X48918872Y-55522647D01*
X48846301Y-55486361D01*
X48664872Y-55486361D01*
X48592301Y-55522647D01*
X48556015Y-55558932D01*
X48519729Y-55631504D01*
X48519729Y-55704075D01*
X48556015Y-55812932D01*
X48991444Y-56248361D01*
X48519729Y-56248361D01*
X48229444Y-55558932D02*
X48193158Y-55522647D01*
X48120586Y-55486361D01*
X47939158Y-55486361D01*
X47866586Y-55522647D01*
X47830301Y-55558932D01*
X47794015Y-55631504D01*
X47794015Y-55704075D01*
X47830301Y-55812932D01*
X48265729Y-56248361D01*
X47794015Y-56248361D01*
D11*
%TO.C,J7*%
X113738333Y-26897380D02*
X113738333Y-27611666D01*
X113785952Y-27754523D01*
X113881190Y-27849761D01*
X114024047Y-27897380D01*
X114119285Y-27897380D01*
X113357380Y-26897380D02*
X112690714Y-26897380D01*
X113119285Y-27897380D01*
D12*
X116005000Y-28445000D02*
X114675000Y-28445000D01*
X110805000Y-28445000D02*
X110805000Y-79365000D01*
X116005000Y-31045000D02*
X116005000Y-79365000D01*
X113405000Y-28445000D02*
X110805000Y-28445000D01*
X116005000Y-29775000D02*
X116005000Y-28445000D01*
X116005000Y-79365000D02*
X110805000Y-79365000D01*
X116005000Y-31045000D02*
X113405000Y-31045000D01*
X113405000Y-31045000D02*
X113405000Y-28445000D01*
%TD*%
M02*
