M48
; DRILL file {KiCad (6.0.2)} date Thu Jun 23 10:44:57 2022
; FORMAT={-:-/ absolute / metric / decimal}
; #@! TF.CreationDate,2022-06-23T10:44:57-05:00
; #@! TF.GenerationSoftware,Kicad,Pcbnew,(6.0.2)
; #@! TF.FileFunction,Plated,1,2,PTH
FMAT,2
METRIC
; #@! TA.AperFunction,Plated,PTH,ViaDrill
T1C0.305
; #@! TA.AperFunction,Plated,PTH,ViaDrill
T2C0.400
; #@! TA.AperFunction,Plated,PTH,ComponentDrill
T3C0.500
; #@! TA.AperFunction,Plated,PTH,ComponentDrill
T4C0.750
; #@! TA.AperFunction,Plated,PTH,ComponentDrill
T5C0.760
; #@! TA.AperFunction,Plated,PTH,ComponentDrill
T6C0.950
; #@! TA.AperFunction,Plated,PTH,ComponentDrill
T7C0.990
; #@! TA.AperFunction,Plated,PTH,ComponentDrill
T8C1.000
; #@! TA.AperFunction,Plated,PTH,ComponentDrill
T9C1.100
; #@! TA.AperFunction,Plated,PTH,ComponentDrill
T10C1.300
; #@! TA.AperFunction,Plated,PTH,ComponentDrill
T11C1.520
%
G90
G05
T1
X34.65Y-75.7
X38.7Y-45.491
X38.7Y-65.65
X39.95Y-45.491
X41.25Y-45.491
X41.3Y-42.65
X42.0Y-75.65
X42.15Y-66.9
X43.25Y-54.05
X43.25Y-54.9
X43.25Y-55.95
X43.25Y-57.0
X43.25Y-57.85
X43.25Y-58.75
X43.3Y-42.7
X44.2Y-66.9
X44.321Y-44.55
X45.65Y-66.9
X46.3Y-65.9
X46.55Y-39.5
X46.65Y-74.5
X47.6Y-42.9
X47.6Y-65.8
X48.85Y-45.45
X48.9Y-65.8
X49.0Y-76.55
X50.15Y-45.5
X50.15Y-28.7
X51.0Y-28.7
X51.85Y-28.7
X51.9Y-29.65
X52.2Y-35.75
X52.2Y-40.3
X52.7Y-41.45
X52.7Y-65.7
X52.8Y-29.65
X53.95Y-65.6
X54.3Y-35.75
X55.2Y-48.7
X55.65Y-27.25
X56.6Y-42.243
X56.6Y-43.1
X57.75Y-61.35
X58.1Y-51.1
X58.3Y-60.1
X58.6Y-70.5
X60.4Y-37.15
X60.4Y-37.85
X60.45Y-42.1
X60.6Y-23.6
X61.4Y-41.45
X61.45Y-44.05
X61.55Y-42.75
X61.65Y-60.1
X62.95Y-45.7
X63.05Y-49.8
X63.05Y-53.05
X64.5Y-25.3
X66.1Y-24.95
X66.3Y-34.6
X66.95Y-57.85
X69.2Y-53.35
X69.25Y-52.1
X70.1Y-41.45
X70.1Y-43.4
X70.1Y-46.75
X71.15Y-44.05
X72.9Y-60.375
X74.05Y-37.9
X74.05Y-42.825
X74.2Y-48.8
X75.15Y-37.9
X77.35Y-37.85
X77.35Y-43.5
X77.75Y-52.1
X78.45Y-37.1
X81.3Y-50.253
X82.1Y-49.7
X83.05Y-26.9
X83.3Y-33.15
X85.45Y-52.45
X95.55Y-28.3
X97.35Y-32.4
X97.55Y-81.55
X105.5Y-57.35
X106.35Y-57.35
X106.35Y-63.8
X107.25Y-57.35
X109.75Y-28.55
X113.3Y-26.831
T2
X104.0Y-80.15
T3
X80.75Y-68.56
X80.75Y-71.1
T4
X86.66Y-32.05
X87.93Y-32.05
X89.2Y-32.05
T5
X101.53Y-71.52
X103.02Y-68.98
X104.07Y-71.52
X105.56Y-68.98
T6
X60.5Y-79.0
X63.0Y-79.0
X64.85Y-63.8
X64.85Y-66.3
X64.85Y-68.8
X65.5Y-79.0
X68.0Y-79.0
X69.8Y-63.8
X69.8Y-66.3
X69.8Y-68.8
X74.05Y-79.0
X74.75Y-63.8
X74.75Y-66.3
X74.75Y-68.8
X76.55Y-79.0
X79.05Y-79.0
X85.1Y-79.0
X87.6Y-79.0
X90.1Y-79.0
X92.6Y-79.0
T7
X39.05Y-83.0
X43.55Y-83.0
X49.1Y-83.0
X53.6Y-83.0
T8
X32.925Y-39.35
X35.465Y-39.35
X38.005Y-39.35
X112.135Y-29.775
X112.135Y-32.315
X112.135Y-34.855
X112.135Y-37.395
X112.135Y-39.935
X112.135Y-42.475
X112.135Y-45.015
X112.135Y-47.555
X112.135Y-50.095
X112.135Y-52.635
X112.135Y-55.175
X112.135Y-57.715
X112.135Y-60.255
X112.135Y-62.795
X112.135Y-65.335
X112.135Y-67.875
X112.135Y-70.415
X112.135Y-72.955
X112.135Y-75.495
X112.135Y-78.035
X114.675Y-29.775
X114.675Y-32.315
X114.675Y-34.855
X114.675Y-37.395
X114.675Y-39.935
X114.675Y-42.475
X114.675Y-45.015
X114.675Y-47.555
X114.675Y-50.095
X114.675Y-52.635
X114.675Y-55.175
X114.675Y-57.715
X114.675Y-60.255
X114.675Y-62.795
X114.675Y-65.335
X114.675Y-67.875
X114.675Y-70.415
X114.675Y-72.955
X114.675Y-75.495
X114.675Y-78.035
T9
X48.71Y-24.15
X51.0Y-24.15
X53.29Y-24.15
X87.35Y-37.82
X87.35Y-47.98
T10
X37.79Y-80.51
X44.8Y-80.51
X47.84Y-80.51
X54.85Y-80.51
X92.6Y-34.0
X92.6Y-46.2
X98.6Y-48.2
X104.6Y-34.0
X104.6Y-46.2
T11
X96.56Y-25.35
X101.64Y-25.35
T8
G00X36.307Y-30.95
M15
G01X36.307Y-32.95
M16
G05
G00X42.008Y-28.95
M15
G01X40.008Y-28.95
M16
G05
G00X42.008Y-34.95
M15
G01X40.008Y-34.95
M16
G05
T0
M30
