%TF.GenerationSoftware,KiCad,Pcbnew,(6.0.2)*%
%TF.CreationDate,2022-06-23T10:44:52-05:00*%
%TF.ProjectId,ESP32,45535033-322e-46b6-9963-61645f706362,rev?*%
%TF.SameCoordinates,Original*%
%TF.FileFunction,Soldermask,Bot*%
%TF.FilePolarity,Negative*%
%FSLAX46Y46*%
G04 Gerber Fmt 4.6, Leading zero omitted, Abs format (unit mm)*
G04 Created by KiCad (PCBNEW (6.0.2)) date 2022-06-23 10:44:52*
%MOMM*%
%LPD*%
G01*
G04 APERTURE LIST*
G04 Aperture macros list*
%AMRoundRect*
0 Rectangle with rounded corners*
0 $1 Rounding radius*
0 $2 $3 $4 $5 $6 $7 $8 $9 X,Y pos of 4 corners*
0 Add a 4 corners polygon primitive as box body*
4,1,4,$2,$3,$4,$5,$6,$7,$8,$9,$2,$3,0*
0 Add four circle primitives for the rounded corners*
1,1,$1+$1,$2,$3*
1,1,$1+$1,$4,$5*
1,1,$1+$1,$6,$7*
1,1,$1+$1,$8,$9*
0 Add four rect primitives between the rounded corners*
20,1,$1+$1,$2,$3,$4,$5,0*
20,1,$1+$1,$4,$5,$6,$7,0*
20,1,$1+$1,$6,$7,$8,$9,0*
20,1,$1+$1,$8,$9,$2,$3,0*%
G04 Aperture macros list end*
%ADD10RoundRect,0.250000X0.600000X0.725000X-0.600000X0.725000X-0.600000X-0.725000X0.600000X-0.725000X0*%
%ADD11O,1.700000X1.950000*%
%ADD12R,3.500000X3.500000*%
%ADD13RoundRect,0.750000X-1.000000X0.750000X-1.000000X-0.750000X1.000000X-0.750000X1.000000X0.750000X0*%
%ADD14RoundRect,0.875000X-0.875000X0.875000X-0.875000X-0.875000X0.875000X-0.875000X0.875000X0.875000X0*%
%ADD15R,3.000000X3.000000*%
%ADD16C,3.000000*%
%ADD17RoundRect,0.250000X-0.725000X0.600000X-0.725000X-0.600000X0.725000X-0.600000X0.725000X0.600000X0*%
%ADD18O,1.950000X1.700000*%
%ADD19R,1.050000X1.500000*%
%ADD20O,1.050000X1.500000*%
%ADD21R,1.717500X1.800000*%
%ADD22O,1.717500X1.800000*%
%ADD23R,1.700000X1.700000*%
%ADD24O,1.700000X1.700000*%
%ADD25C,1.923500*%
%ADD26C,1.000000*%
%ADD27C,2.100000*%
%ADD28C,1.750000*%
%ADD29R,2.200000X2.200000*%
%ADD30O,2.200000X2.200000*%
%ADD31C,3.250000*%
%ADD32R,1.520000X1.520000*%
%ADD33C,1.520000*%
G04 APERTURE END LIST*
D10*
%TO.C,J3*%
X79050000Y-79000000D03*
D11*
X76550000Y-79000000D03*
X74050000Y-79000000D03*
%TD*%
D12*
%TO.C,J1*%
X41007500Y-34950000D03*
D13*
X41007500Y-28950000D03*
D14*
X36307500Y-31950000D03*
%TD*%
D15*
%TO.C,J12*%
X101640000Y-25350000D03*
D16*
X96560000Y-25350000D03*
%TD*%
D17*
%TO.C,J10*%
X74750000Y-63800000D03*
D18*
X74750000Y-66300000D03*
X74750000Y-68800000D03*
%TD*%
D19*
%TO.C,Q1*%
X89200000Y-32050000D03*
D20*
X87930000Y-32050000D03*
X86660000Y-32050000D03*
%TD*%
D17*
%TO.C,J5*%
X64850000Y-63800000D03*
D18*
X64850000Y-66300000D03*
X64850000Y-68800000D03*
%TD*%
D10*
%TO.C,J4*%
X68000000Y-79000000D03*
D11*
X65500000Y-79000000D03*
X63000000Y-79000000D03*
X60500000Y-79000000D03*
%TD*%
D10*
%TO.C,J2*%
X92600000Y-79000000D03*
D11*
X90100000Y-79000000D03*
X87600000Y-79000000D03*
X85100000Y-79000000D03*
%TD*%
D21*
%TO.C,U3*%
X48710000Y-24150000D03*
D22*
X51000000Y-24150000D03*
X53290000Y-24150000D03*
%TD*%
D23*
%TO.C,J11*%
X32925000Y-39350000D03*
D24*
X35465000Y-39350000D03*
X38005000Y-39350000D03*
%TD*%
D25*
%TO.C,J8*%
X72150000Y-24975000D03*
D26*
X80150000Y-24975000D03*
%TD*%
D27*
%TO.C,CFG1*%
X54850000Y-80510000D03*
X47840000Y-80510000D03*
D28*
X53600000Y-83000000D03*
X49100000Y-83000000D03*
%TD*%
D26*
%TO.C,Y1*%
X80750000Y-71100000D03*
X80750000Y-68560000D03*
%TD*%
D29*
%TO.C,D4*%
X87350000Y-37820000D03*
D30*
X87350000Y-47980000D03*
%TD*%
D31*
%TO.C,J9*%
X97920001Y-77869999D03*
X108080001Y-77869999D03*
D32*
X103020001Y-68979999D03*
D33*
X101530001Y-71519999D03*
X105560001Y-68979999D03*
X104070001Y-71519999D03*
%TD*%
D17*
%TO.C,J6*%
X69800000Y-63800000D03*
D18*
X69800000Y-66300000D03*
X69800000Y-68800000D03*
%TD*%
D27*
%TO.C,RST1*%
X37790000Y-80510000D03*
X44800000Y-80510000D03*
D28*
X43550000Y-83000000D03*
X39050000Y-83000000D03*
%TD*%
D16*
%TO.C,K1*%
X98600000Y-48200000D03*
X92600000Y-34000000D03*
X104600000Y-34000000D03*
X104600000Y-46200000D03*
X92600000Y-46200000D03*
%TD*%
D23*
%TO.C,J7*%
X114675000Y-29775000D03*
D24*
X112135000Y-29775000D03*
X114675000Y-32315000D03*
X112135000Y-32315000D03*
X114675000Y-34855000D03*
X112135000Y-34855000D03*
X114675000Y-37395000D03*
X112135000Y-37395000D03*
X114675000Y-39935000D03*
X112135000Y-39935000D03*
X114675000Y-42475000D03*
X112135000Y-42475000D03*
X114675000Y-45015000D03*
X112135000Y-45015000D03*
X114675000Y-47555000D03*
X112135000Y-47555000D03*
X114675000Y-50095000D03*
X112135000Y-50095000D03*
X114675000Y-52635000D03*
X112135000Y-52635000D03*
X114675000Y-55175000D03*
X112135000Y-55175000D03*
X114675000Y-57715000D03*
X112135000Y-57715000D03*
X114675000Y-60255000D03*
X112135000Y-60255000D03*
X114675000Y-62795000D03*
X112135000Y-62795000D03*
X114675000Y-65335000D03*
X112135000Y-65335000D03*
X114675000Y-67875000D03*
X112135000Y-67875000D03*
X114675000Y-70415000D03*
X112135000Y-70415000D03*
X114675000Y-72955000D03*
X112135000Y-72955000D03*
X114675000Y-75495000D03*
X112135000Y-75495000D03*
X114675000Y-78035000D03*
X112135000Y-78035000D03*
%TD*%
M02*
