%TF.GenerationSoftware,KiCad,Pcbnew,(6.0.2)*%
%TF.CreationDate,2022-06-23T10:44:51-05:00*%
%TF.ProjectId,ESP32,45535033-322e-46b6-9963-61645f706362,rev?*%
%TF.SameCoordinates,Original*%
%TF.FileFunction,Copper,L1,Top*%
%TF.FilePolarity,Positive*%
%FSLAX46Y46*%
G04 Gerber Fmt 4.6, Leading zero omitted, Abs format (unit mm)*
G04 Created by KiCad (PCBNEW (6.0.2)) date 2022-06-23 10:44:51*
%MOMM*%
%LPD*%
G01*
G04 APERTURE LIST*
G04 Aperture macros list*
%AMRoundRect*
0 Rectangle with rounded corners*
0 $1 Rounding radius*
0 $2 $3 $4 $5 $6 $7 $8 $9 X,Y pos of 4 corners*
0 Add a 4 corners polygon primitive as box body*
4,1,4,$2,$3,$4,$5,$6,$7,$8,$9,$2,$3,0*
0 Add four circle primitives for the rounded corners*
1,1,$1+$1,$2,$3*
1,1,$1+$1,$4,$5*
1,1,$1+$1,$6,$7*
1,1,$1+$1,$8,$9*
0 Add four rect primitives between the rounded corners*
20,1,$1+$1,$2,$3,$4,$5,0*
20,1,$1+$1,$4,$5,$6,$7,0*
20,1,$1+$1,$6,$7,$8,$9,0*
20,1,$1+$1,$8,$9,$2,$3,0*%
G04 Aperture macros list end*
%TA.AperFunction,SMDPad,CuDef*%
%ADD10RoundRect,0.250000X0.450000X-0.350000X0.450000X0.350000X-0.450000X0.350000X-0.450000X-0.350000X0*%
%TD*%
%TA.AperFunction,SMDPad,CuDef*%
%ADD11RoundRect,0.250000X-0.450000X0.350000X-0.450000X-0.350000X0.450000X-0.350000X0.450000X0.350000X0*%
%TD*%
%TA.AperFunction,ComponentPad*%
%ADD12RoundRect,0.250000X0.600000X0.725000X-0.600000X0.725000X-0.600000X-0.725000X0.600000X-0.725000X0*%
%TD*%
%TA.AperFunction,ComponentPad*%
%ADD13O,1.700000X1.950000*%
%TD*%
%TA.AperFunction,SMDPad,CuDef*%
%ADD14R,1.473200X0.355600*%
%TD*%
%TA.AperFunction,ComponentPad*%
%ADD15R,3.500000X3.500000*%
%TD*%
%TA.AperFunction,ComponentPad*%
%ADD16RoundRect,0.750000X-1.000000X0.750000X-1.000000X-0.750000X1.000000X-0.750000X1.000000X0.750000X0*%
%TD*%
%TA.AperFunction,ComponentPad*%
%ADD17RoundRect,0.875000X-0.875000X0.875000X-0.875000X-0.875000X0.875000X-0.875000X0.875000X0.875000X0*%
%TD*%
%TA.AperFunction,SMDPad,CuDef*%
%ADD18R,0.900000X2.000000*%
%TD*%
%TA.AperFunction,SMDPad,CuDef*%
%ADD19R,2.000000X0.900000*%
%TD*%
%TA.AperFunction,SMDPad,CuDef*%
%ADD20R,5.000000X5.000000*%
%TD*%
%TA.AperFunction,SMDPad,CuDef*%
%ADD21RoundRect,0.250000X-0.337500X-0.475000X0.337500X-0.475000X0.337500X0.475000X-0.337500X0.475000X0*%
%TD*%
%TA.AperFunction,ComponentPad*%
%ADD22R,3.000000X3.000000*%
%TD*%
%TA.AperFunction,ComponentPad*%
%ADD23C,3.000000*%
%TD*%
%TA.AperFunction,ComponentPad*%
%ADD24RoundRect,0.250000X-0.725000X0.600000X-0.725000X-0.600000X0.725000X-0.600000X0.725000X0.600000X0*%
%TD*%
%TA.AperFunction,ComponentPad*%
%ADD25O,1.950000X1.700000*%
%TD*%
%TA.AperFunction,SMDPad,CuDef*%
%ADD26R,1.500000X1.000000*%
%TD*%
%TA.AperFunction,SMDPad,CuDef*%
%ADD27RoundRect,0.250000X0.337500X0.475000X-0.337500X0.475000X-0.337500X-0.475000X0.337500X-0.475000X0*%
%TD*%
%TA.AperFunction,SMDPad,CuDef*%
%ADD28R,3.000000X3.600000*%
%TD*%
%TA.AperFunction,SMDPad,CuDef*%
%ADD29R,3.000000X2.600000*%
%TD*%
%TA.AperFunction,ComponentPad*%
%ADD30R,1.050000X1.500000*%
%TD*%
%TA.AperFunction,ComponentPad*%
%ADD31O,1.050000X1.500000*%
%TD*%
%TA.AperFunction,ComponentPad*%
%ADD32R,1.717500X1.800000*%
%TD*%
%TA.AperFunction,ComponentPad*%
%ADD33O,1.717500X1.800000*%
%TD*%
%TA.AperFunction,SMDPad,CuDef*%
%ADD34R,1.500000X2.000000*%
%TD*%
%TA.AperFunction,SMDPad,CuDef*%
%ADD35R,3.800000X2.000000*%
%TD*%
%TA.AperFunction,ComponentPad*%
%ADD36R,1.700000X1.700000*%
%TD*%
%TA.AperFunction,ComponentPad*%
%ADD37O,1.700000X1.700000*%
%TD*%
%TA.AperFunction,SMDPad,CuDef*%
%ADD38R,0.700000X1.900000*%
%TD*%
%TA.AperFunction,SMDPad,CuDef*%
%ADD39R,1.700000X1.800000*%
%TD*%
%TA.AperFunction,SMDPad,CuDef*%
%ADD40R,1.400000X2.600000*%
%TD*%
%TA.AperFunction,ComponentPad*%
%ADD41C,2.100000*%
%TD*%
%TA.AperFunction,ComponentPad*%
%ADD42C,1.750000*%
%TD*%
%TA.AperFunction,SMDPad,CuDef*%
%ADD43RoundRect,0.250000X-1.100000X0.412500X-1.100000X-0.412500X1.100000X-0.412500X1.100000X0.412500X0*%
%TD*%
%TA.AperFunction,ComponentPad*%
%ADD44C,1.000000*%
%TD*%
%TA.AperFunction,SMDPad,CuDef*%
%ADD45RoundRect,0.150000X0.825000X0.150000X-0.825000X0.150000X-0.825000X-0.150000X0.825000X-0.150000X0*%
%TD*%
%TA.AperFunction,SMDPad,CuDef*%
%ADD46R,0.900000X1.700000*%
%TD*%
%TA.AperFunction,ComponentPad*%
%ADD47R,2.200000X2.200000*%
%TD*%
%TA.AperFunction,ComponentPad*%
%ADD48O,2.200000X2.200000*%
%TD*%
%TA.AperFunction,SMDPad,CuDef*%
%ADD49RoundRect,0.250000X-0.350000X-0.450000X0.350000X-0.450000X0.350000X0.450000X-0.350000X0.450000X0*%
%TD*%
%TA.AperFunction,SMDPad,CuDef*%
%ADD50RoundRect,0.250000X0.350000X0.450000X-0.350000X0.450000X-0.350000X-0.450000X0.350000X-0.450000X0*%
%TD*%
%TA.AperFunction,ComponentPad*%
%ADD51R,1.520000X1.520000*%
%TD*%
%TA.AperFunction,ComponentPad*%
%ADD52C,1.520000*%
%TD*%
%TA.AperFunction,SMDPad,CuDef*%
%ADD53RoundRect,0.250000X1.100000X-0.412500X1.100000X0.412500X-1.100000X0.412500X-1.100000X-0.412500X0*%
%TD*%
%TA.AperFunction,SMDPad,CuDef*%
%ADD54RoundRect,0.250001X0.462499X0.624999X-0.462499X0.624999X-0.462499X-0.624999X0.462499X-0.624999X0*%
%TD*%
%TA.AperFunction,SMDPad,CuDef*%
%ADD55RoundRect,0.250000X-0.412500X-1.100000X0.412500X-1.100000X0.412500X1.100000X-0.412500X1.100000X0*%
%TD*%
%TA.AperFunction,ViaPad*%
%ADD56C,0.457200*%
%TD*%
%TA.AperFunction,ViaPad*%
%ADD57C,0.800000*%
%TD*%
%TA.AperFunction,Conductor*%
%ADD58C,0.250000*%
%TD*%
%TA.AperFunction,Conductor*%
%ADD59C,0.254000*%
%TD*%
%TA.AperFunction,Conductor*%
%ADD60C,0.482600*%
%TD*%
G04 APERTURE END LIST*
D10*
%TO.P,R17,1*%
%TO.N,Net-(Q1-Pad2)*%
X86850000Y-27000000D03*
%TO.P,R17,2*%
%TO.N,Earth*%
X86850000Y-25000000D03*
%TD*%
D11*
%TO.P,R15,1*%
%TO.N,Net-(R15-Pad1)*%
X66950000Y-53900000D03*
%TO.P,R15,2*%
%TO.N,5V*%
X66950000Y-55900000D03*
%TD*%
D12*
%TO.P,J3,1,Pin_1*%
%TO.N,/GPIO15*%
X79050000Y-79000000D03*
D13*
%TO.P,J3,2,Pin_2*%
%TO.N,VDD3V3*%
X76550000Y-79000000D03*
%TO.P,J3,3,Pin_3*%
%TO.N,Earth*%
X74050000Y-79000000D03*
%TD*%
D11*
%TO.P,R2,1*%
%TO.N,Net-(D1-Pad2)*%
X54650000Y-68150000D03*
%TO.P,R2,2*%
%TO.N,VDD3V3*%
X54650000Y-70150000D03*
%TD*%
D14*
%TO.P,U4,1,1~{OE}*%
%TO.N,Earth*%
X62979000Y-40794200D03*
%TO.P,U4,2,1A*%
%TO.N,Net-(R9-Pad2)*%
X62979000Y-41454600D03*
%TO.P,U4,3,1Y*%
%TO.N,Net-(J8-Pad3)*%
X62979000Y-42089600D03*
%TO.P,U4,4,2~{OE}*%
%TO.N,Earth*%
X62979000Y-42750000D03*
%TO.P,U4,5,2A*%
%TO.N,Net-(R10-Pad2)*%
X62979000Y-43410400D03*
%TO.P,U4,6,2Y*%
%TO.N,Net-(J8-Pad5)*%
X62979000Y-44045400D03*
%TO.P,U4,7,GND*%
%TO.N,Earth*%
X62979000Y-44705800D03*
%TO.P,U4,8,3Y*%
%TO.N,Net-(J8-Pad2)*%
X68821000Y-44705800D03*
%TO.P,U4,9,3A*%
%TO.N,Net-(R11-Pad2)*%
X68821000Y-44045400D03*
%TO.P,U4,10,3~{OE}*%
%TO.N,Earth*%
X68821000Y-43410400D03*
%TO.P,U4,11,4Y*%
%TO.N,/MISO*%
X68821000Y-42750000D03*
%TO.P,U4,12,4A*%
%TO.N,Net-(R12-Pad2)*%
X68821000Y-42089600D03*
%TO.P,U4,13,4~{OE}*%
%TO.N,Earth*%
X68821000Y-41454600D03*
%TO.P,U4,14,VCC*%
%TO.N,VDD3V3*%
X68821000Y-40794200D03*
%TD*%
D15*
%TO.P,J1,1*%
%TO.N,VCCDC*%
X41007500Y-34950000D03*
D16*
%TO.P,J1,2*%
%TO.N,Earth*%
X41007500Y-28950000D03*
D17*
%TO.P,J1,3*%
%TO.N,N/C*%
X36307500Y-31950000D03*
%TD*%
D11*
%TO.P,R16,1*%
%TO.N,/GPIO33*%
X89500000Y-25000000D03*
%TO.P,R16,2*%
%TO.N,Net-(Q1-Pad2)*%
X89500000Y-27000000D03*
%TD*%
D18*
%TO.P,U1,1,GND*%
%TO.N,Earth*%
X38695000Y-64150000D03*
%TO.P,U1,2,VDD*%
%TO.N,VDD3V3*%
X39965000Y-64150000D03*
%TO.P,U1,3,EN*%
%TO.N,/EN*%
X41235000Y-64150000D03*
%TO.P,U1,4,SENSOR_VP*%
%TO.N,/GPIO36*%
X42505000Y-64150000D03*
%TO.P,U1,5,SENSOR_VN*%
%TO.N,unconnected-(U1-Pad5)*%
X43775000Y-64150000D03*
%TO.P,U1,6,IO34*%
%TO.N,/GPIO34*%
X45045000Y-64150000D03*
%TO.P,U1,7,IO35*%
%TO.N,/ADC1_CH7*%
X46315000Y-64150000D03*
%TO.P,U1,8,IO32*%
%TO.N,/GPIO32*%
X47585000Y-64150000D03*
%TO.P,U1,9,IO33*%
%TO.N,/GPIO33*%
X48855000Y-64150000D03*
%TO.P,U1,10,IO25*%
%TO.N,/GPIO25*%
X50125000Y-64150000D03*
%TO.P,U1,11,IO26*%
%TO.N,/GPIO26*%
X51395000Y-64150000D03*
%TO.P,U1,12,IO27*%
%TO.N,/ADC2_CH7*%
X52665000Y-64150000D03*
%TO.P,U1,13,IO14*%
%TO.N,/ADC2_CH6*%
X53935000Y-64150000D03*
%TO.P,U1,14,IO12*%
%TO.N,/GPIO12*%
X55205000Y-64150000D03*
D19*
%TO.P,U1,15,GND*%
%TO.N,Earth*%
X56205000Y-61365000D03*
%TO.P,U1,16,IO13*%
%TO.N,/GPIO13*%
X56205000Y-60095000D03*
%TO.P,U1,17,SHD/SD2*%
%TO.N,unconnected-(U1-Pad17)*%
X56205000Y-58825000D03*
%TO.P,U1,18,SWP/SD3*%
%TO.N,unconnected-(U1-Pad18)*%
X56205000Y-57555000D03*
%TO.P,U1,19,SCS/CMD*%
%TO.N,unconnected-(U1-Pad19)*%
X56205000Y-56285000D03*
%TO.P,U1,20,SCK/CLK*%
%TO.N,unconnected-(U1-Pad20)*%
X56205000Y-55015000D03*
%TO.P,U1,21,SDO/SD0*%
%TO.N,unconnected-(U1-Pad21)*%
X56205000Y-53745000D03*
%TO.P,U1,22,SDI/SD1*%
%TO.N,unconnected-(U1-Pad22)*%
X56205000Y-52475000D03*
%TO.P,U1,23,IO15*%
%TO.N,/GPIO15*%
X56205000Y-51205000D03*
%TO.P,U1,24,IO2*%
%TO.N,/GPIO2*%
X56205000Y-49935000D03*
D18*
%TO.P,U1,25,IO0*%
%TO.N,/GPIO0*%
X55205000Y-47150000D03*
%TO.P,U1,26,IO4*%
%TO.N,/ADC2_CH0*%
X53935000Y-47150000D03*
%TO.P,U1,27,IO16*%
%TO.N,/RX2*%
X52665000Y-47150000D03*
%TO.P,U1,28,IO17*%
%TO.N,/TX2*%
X51395000Y-47150000D03*
%TO.P,U1,29,IO5*%
%TO.N,/CS*%
X50125000Y-47150000D03*
%TO.P,U1,30,IO18*%
%TO.N,/CLK*%
X48855000Y-47150000D03*
%TO.P,U1,31,IO19*%
%TO.N,/MISO*%
X47585000Y-47150000D03*
%TO.P,U1,32,NC*%
%TO.N,unconnected-(U1-Pad32)*%
X46315000Y-47150000D03*
%TO.P,U1,33,IO21*%
%TO.N,/SDA*%
X45045000Y-47150000D03*
%TO.P,U1,34,RXD0/IO3*%
%TO.N,/TXD*%
X43775000Y-47150000D03*
%TO.P,U1,35,TXD0/IO1*%
%TO.N,/RXD*%
X42505000Y-47150000D03*
%TO.P,U1,36,IO22*%
%TO.N,/SCL*%
X41235000Y-47150000D03*
%TO.P,U1,37,IO23*%
%TO.N,/MOSI*%
X39965000Y-47150000D03*
%TO.P,U1,38,GND*%
%TO.N,Earth*%
X38695000Y-47150000D03*
D20*
%TO.P,U1,39,GND*%
X46195000Y-56650000D03*
%TD*%
D11*
%TO.P,R12,1*%
%TO.N,/D0*%
X79550000Y-40750000D03*
%TO.P,R12,2*%
%TO.N,Net-(R12-Pad2)*%
X79550000Y-42750000D03*
%TD*%
D21*
%TO.P,C7,1*%
%TO.N,VDD3V3*%
X68862500Y-38700000D03*
%TO.P,C7,2*%
%TO.N,Earth*%
X70937500Y-38700000D03*
%TD*%
D22*
%TO.P,J12,1,Pin_1*%
%TO.N,/NO*%
X101640000Y-25350000D03*
D23*
%TO.P,J12,2,Pin_2*%
%TO.N,Earth*%
X96560000Y-25350000D03*
%TD*%
D24*
%TO.P,J10,1,Pin_1*%
%TO.N,Earth*%
X74750000Y-63800000D03*
D25*
%TO.P,J10,2,Pin_2*%
%TO.N,VDD3V3*%
X74750000Y-66300000D03*
%TO.P,J10,3,Pin_3*%
%TO.N,/ADC2_CH0*%
X74750000Y-68800000D03*
%TD*%
D26*
%TO.P,D3,1,A1*%
%TO.N,Net-(D3-Pad1)*%
X49350000Y-73400000D03*
%TO.P,D3,2,A2*%
%TO.N,Net-(D3-Pad2)*%
X49350000Y-74800000D03*
%TO.P,D3,3,K1*%
%TO.N,/GPIO26*%
X52850000Y-74800000D03*
%TO.P,D3,4,K2*%
%TO.N,/GPIO25*%
X52850000Y-73400000D03*
%TD*%
D11*
%TO.P,R14,1*%
%TO.N,5V*%
X45300000Y-39500000D03*
%TO.P,R14,2*%
%TO.N,/SDA*%
X45300000Y-41500000D03*
%TD*%
D27*
%TO.P,C6,1*%
%TO.N,5V*%
X54137500Y-27250000D03*
%TO.P,C6,2*%
%TO.N,Earth*%
X52062500Y-27250000D03*
%TD*%
D10*
%TO.P,R9,1*%
%TO.N,/MOSI*%
X41300000Y-41500000D03*
%TO.P,R9,2*%
%TO.N,Net-(R9-Pad2)*%
X41300000Y-39500000D03*
%TD*%
D11*
%TO.P,R13,1*%
%TO.N,5V*%
X43300000Y-39500000D03*
%TO.P,R13,2*%
%TO.N,/SCL*%
X43300000Y-41500000D03*
%TD*%
D28*
%TO.P,BT1,1,+*%
%TO.N,Net-(BT1-Pad1)*%
X85128000Y-59200000D03*
D29*
%TO.P,BT1,2,-*%
%TO.N,Earth*%
X106528000Y-59200000D03*
%TD*%
D10*
%TO.P,R7,1*%
%TO.N,Net-(D3-Pad2)*%
X48650000Y-70150000D03*
%TO.P,R7,2*%
%TO.N,VDD3V3*%
X48650000Y-68150000D03*
%TD*%
D30*
%TO.P,Q1,1,C*%
%TO.N,Net-(D4-Pad2)*%
X89200000Y-32050000D03*
D31*
%TO.P,Q1,2,B*%
%TO.N,Net-(Q1-Pad2)*%
X87930000Y-32050000D03*
%TO.P,Q1,3,E*%
%TO.N,Earth*%
X86660000Y-32050000D03*
%TD*%
D24*
%TO.P,J5,1,Pin_1*%
%TO.N,Earth*%
X64850000Y-63800000D03*
D25*
%TO.P,J5,2,Pin_2*%
%TO.N,VDD3V3*%
X64850000Y-66300000D03*
%TO.P,J5,3,Pin_3*%
%TO.N,/ADC2_CH6*%
X64850000Y-68800000D03*
%TD*%
D12*
%TO.P,J4,1,Pin_1*%
%TO.N,VDD3V3*%
X68000000Y-79000000D03*
D13*
%TO.P,J4,2,Pin_2*%
%TO.N,Earth*%
X65500000Y-79000000D03*
%TO.P,J4,3,Pin_3*%
%TO.N,/GPIO12*%
X63000000Y-79000000D03*
%TO.P,J4,4,Pin_4*%
%TO.N,/GPIO13*%
X60500000Y-79000000D03*
%TD*%
D12*
%TO.P,J2,1,Pin_1*%
%TO.N,Earth*%
X92600000Y-79000000D03*
D13*
%TO.P,J2,2,Pin_2*%
%TO.N,/SDA*%
X90100000Y-79000000D03*
%TO.P,J2,3,Pin_3*%
%TO.N,/SCL*%
X87600000Y-79000000D03*
%TO.P,J2,4,Pin_4*%
%TO.N,VDD3V3*%
X85100000Y-79000000D03*
%TD*%
D32*
%TO.P,U3,1,IN*%
%TO.N,VCCDC*%
X48710000Y-24150000D03*
D33*
%TO.P,U3,2,GND*%
%TO.N,Earth*%
X51000000Y-24150000D03*
%TO.P,U3,3,OUT*%
%TO.N,5V*%
X53290000Y-24150000D03*
%TD*%
D34*
%TO.P,U2,1,GND*%
%TO.N,Earth*%
X62900000Y-25300000D03*
D35*
%TO.P,U2,2,VO*%
%TO.N,VDD3V3*%
X60600000Y-31600000D03*
D34*
X60600000Y-25300000D03*
%TO.P,U2,3,VI*%
%TO.N,VCCDC*%
X58300000Y-25300000D03*
%TD*%
D36*
%TO.P,J11,1,Pin_1*%
%TO.N,Earth*%
X32925000Y-39350000D03*
D37*
%TO.P,J11,2,Pin_2*%
%TO.N,/RXD*%
X35465000Y-39350000D03*
%TO.P,J11,3,Pin_3*%
%TO.N,/TXD*%
X38005000Y-39350000D03*
%TD*%
D10*
%TO.P,R6,1*%
%TO.N,Net-(D3-Pad1)*%
X50650000Y-70150000D03*
%TO.P,R6,2*%
%TO.N,VDD3V3*%
X50650000Y-68150000D03*
%TD*%
D38*
%TO.P,J8,1,DAT2*%
%TO.N,unconnected-(J8-Pad1)*%
X72950000Y-35625000D03*
%TO.P,J8,2,CD/DAT3*%
%TO.N,Net-(J8-Pad2)*%
X74050000Y-35625000D03*
%TO.P,J8,3,CMD*%
%TO.N,Net-(J8-Pad3)*%
X75150000Y-35625000D03*
%TO.P,J8,4,VDD*%
%TO.N,VDD3V3*%
X76250000Y-35625000D03*
%TO.P,J8,5,CLK*%
%TO.N,Net-(J8-Pad5)*%
X77350000Y-35625000D03*
%TO.P,J8,6,VSS*%
%TO.N,Earth*%
X78450000Y-35625000D03*
%TO.P,J8,7,DAT0*%
%TO.N,/D0*%
X79550000Y-35625000D03*
%TO.P,J8,8,DAT1*%
%TO.N,unconnected-(J8-Pad8)*%
X80650000Y-35625000D03*
%TO.P,J8,9,CD_SW1*%
%TO.N,unconnected-(J8-Pad9)*%
X81750000Y-35625000D03*
D39*
%TO.P,J8,10,GND*%
%TO.N,Earth*%
X83300000Y-34575000D03*
%TO.P,J8,11,GND*%
X67800000Y-34575000D03*
D40*
%TO.P,J8,12,GND*%
X83050000Y-24975000D03*
%TO.P,J8,13,GND*%
X67350000Y-24975000D03*
%TD*%
D41*
%TO.P,CFG1,*%
%TO.N,*%
X54850000Y-80510000D03*
X47840000Y-80510000D03*
D42*
%TO.P,CFG1,1,1*%
%TO.N,VDD3V3*%
X53600000Y-83000000D03*
%TO.P,CFG1,2,2*%
%TO.N,/GPIO34*%
X49100000Y-83000000D03*
%TD*%
D43*
%TO.P,C3,1*%
%TO.N,VDD3V3*%
X58600000Y-34387500D03*
%TO.P,C3,2*%
%TO.N,Earth*%
X58600000Y-37512500D03*
%TD*%
D44*
%TO.P,Y1,1,1*%
%TO.N,Net-(U5-Pad1)*%
X80750000Y-71100000D03*
%TO.P,Y1,2,2*%
%TO.N,Net-(U5-Pad2)*%
X80750000Y-68560000D03*
%TD*%
D45*
%TO.P,U5,1,X1*%
%TO.N,Net-(U5-Pad1)*%
X76175000Y-55905000D03*
%TO.P,U5,2,X2*%
%TO.N,Net-(U5-Pad2)*%
X76175000Y-54635000D03*
%TO.P,U5,3,VBAT*%
%TO.N,Net-(BT1-Pad1)*%
X76175000Y-53365000D03*
%TO.P,U5,4,GND*%
%TO.N,Earth*%
X76175000Y-52095000D03*
%TO.P,U5,5,SDA*%
%TO.N,/SDA*%
X71225000Y-52095000D03*
%TO.P,U5,6,SCL*%
%TO.N,/SCL*%
X71225000Y-53365000D03*
%TO.P,U5,7,SQW/OUT*%
%TO.N,Net-(R15-Pad1)*%
X71225000Y-54635000D03*
%TO.P,U5,8,VCC*%
%TO.N,5V*%
X71225000Y-55905000D03*
%TD*%
D46*
%TO.P,RST2,1,1*%
%TO.N,/GPIO0*%
X35200009Y-35749992D03*
%TO.P,RST2,2,2*%
%TO.N,Earth*%
X31800009Y-35749992D03*
%TD*%
D21*
%TO.P,C5,1*%
%TO.N,VCCDC*%
X47962500Y-27250000D03*
%TO.P,C5,2*%
%TO.N,Earth*%
X50037500Y-27250000D03*
%TD*%
D47*
%TO.P,D4,1,K*%
%TO.N,VCCDC*%
X87350000Y-37820000D03*
D48*
%TO.P,D4,2,A*%
%TO.N,Net-(D4-Pad2)*%
X87350000Y-47980000D03*
%TD*%
D49*
%TO.P,R1,1*%
%TO.N,VDD3V3*%
X38850000Y-70950000D03*
%TO.P,R1,2*%
%TO.N,/EN*%
X40850000Y-70950000D03*
%TD*%
D50*
%TO.P,R3,1*%
%TO.N,Net-(D2-Pad2)*%
X36650000Y-73900000D03*
%TO.P,R3,2*%
%TO.N,VDD3V3*%
X34650000Y-73900000D03*
%TD*%
D11*
%TO.P,R4,1*%
%TO.N,/GPIO34*%
X46650000Y-68150000D03*
%TO.P,R4,2*%
%TO.N,Earth*%
X46650000Y-70150000D03*
%TD*%
D51*
%TO.P,J9,1,Pin_1*%
%TO.N,/ADC1_CH7*%
X103020001Y-68979999D03*
D52*
%TO.P,J9,2,Pin_2*%
%TO.N,VDD3V3*%
X101530001Y-71519999D03*
%TO.P,J9,3,Pin_3*%
%TO.N,Earth*%
X105560001Y-68979999D03*
%TO.P,J9,4,Pin_4*%
X104070001Y-71519999D03*
%TD*%
D53*
%TO.P,C4,1*%
%TO.N,Earth*%
X62150000Y-37512500D03*
%TO.P,C4,2*%
%TO.N,VDD3V3*%
X62150000Y-34387500D03*
%TD*%
D54*
%TO.P,D2,1,K*%
%TO.N,Earth*%
X41987500Y-74050000D03*
%TO.P,D2,2,A*%
%TO.N,Net-(D2-Pad2)*%
X39012500Y-74050000D03*
%TD*%
%TO.P,D1,1,K*%
%TO.N,/GPIO2*%
X59587500Y-74100000D03*
%TO.P,D1,2,A*%
%TO.N,Net-(D1-Pad2)*%
X56612500Y-74100000D03*
%TD*%
D49*
%TO.P,R5,1*%
%TO.N,/GPIO15*%
X63050000Y-51200000D03*
%TO.P,R5,2*%
%TO.N,VDD3V3*%
X65050000Y-51200000D03*
%TD*%
D24*
%TO.P,J6,1,Pin_1*%
%TO.N,Earth*%
X69800000Y-63800000D03*
D25*
%TO.P,J6,2,Pin_2*%
%TO.N,VDD3V3*%
X69800000Y-66300000D03*
%TO.P,J6,3,Pin_3*%
%TO.N,/ADC2_CH7*%
X69800000Y-68800000D03*
%TD*%
D21*
%TO.P,C2,1*%
%TO.N,Earth*%
X52962500Y-31350000D03*
%TO.P,C2,2*%
%TO.N,VDD3V3*%
X55037500Y-31350000D03*
%TD*%
D55*
%TO.P,C1,1*%
%TO.N,VCCDC*%
X47387500Y-30750000D03*
%TO.P,C1,2*%
%TO.N,Earth*%
X50512500Y-30750000D03*
%TD*%
D41*
%TO.P,RST1,*%
%TO.N,*%
X37790000Y-80510000D03*
X44800000Y-80510000D03*
D42*
%TO.P,RST1,1,1*%
%TO.N,/EN*%
X43550000Y-83000000D03*
%TO.P,RST1,2,2*%
%TO.N,Earth*%
X39050000Y-83000000D03*
%TD*%
D11*
%TO.P,R11,1*%
%TO.N,/CS*%
X52200000Y-37050000D03*
%TO.P,R11,2*%
%TO.N,Net-(R11-Pad2)*%
X52200000Y-39050000D03*
%TD*%
D23*
%TO.P,K1,11*%
%TO.N,VCCDC*%
X98600000Y-48200000D03*
%TO.P,K1,12*%
%TO.N,/NC*%
X92600000Y-34000000D03*
%TO.P,K1,14*%
%TO.N,/NO*%
X104600000Y-34000000D03*
%TO.P,K1,A1*%
%TO.N,VCCDC*%
X104600000Y-46200000D03*
%TO.P,K1,A2*%
%TO.N,Net-(D4-Pad2)*%
X92600000Y-46200000D03*
%TD*%
D11*
%TO.P,R10,1*%
%TO.N,/CLK*%
X54300000Y-37050000D03*
%TO.P,R10,2*%
%TO.N,Net-(R10-Pad2)*%
X54300000Y-39050000D03*
%TD*%
D36*
%TO.P,J7,1,Pin_1*%
%TO.N,5V*%
X114675000Y-29775000D03*
D37*
%TO.P,J7,2,Pin_2*%
%TO.N,VDD3V3*%
X112135000Y-29775000D03*
%TO.P,J7,3,Pin_3*%
%TO.N,unconnected-(J7-Pad3)*%
X114675000Y-32315000D03*
%TO.P,J7,4,Pin_4*%
%TO.N,unconnected-(J7-Pad4)*%
X112135000Y-32315000D03*
%TO.P,J7,5,Pin_5*%
%TO.N,Earth*%
X114675000Y-34855000D03*
%TO.P,J7,6,Pin_6*%
X112135000Y-34855000D03*
%TO.P,J7,7,Pin_7*%
%TO.N,/TX2*%
X114675000Y-37395000D03*
%TO.P,J7,8,Pin_8*%
%TO.N,unconnected-(J7-Pad8)*%
X112135000Y-37395000D03*
%TO.P,J7,9,Pin_9*%
%TO.N,/RX2*%
X114675000Y-39935000D03*
%TO.P,J7,10,Pin_10*%
%TO.N,unconnected-(J7-Pad10)*%
X112135000Y-39935000D03*
%TO.P,J7,11,Pin_11*%
%TO.N,unconnected-(J7-Pad11)*%
X114675000Y-42475000D03*
%TO.P,J7,12,Pin_12*%
%TO.N,/GPIO32*%
X112135000Y-42475000D03*
%TO.P,J7,13,Pin_13*%
%TO.N,unconnected-(J7-Pad13)*%
X114675000Y-45015000D03*
%TO.P,J7,14,Pin_14*%
%TO.N,unconnected-(J7-Pad14)*%
X112135000Y-45015000D03*
%TO.P,J7,15,Pin_15*%
%TO.N,unconnected-(J7-Pad15)*%
X114675000Y-47555000D03*
%TO.P,J7,16,Pin_16*%
%TO.N,unconnected-(J7-Pad16)*%
X112135000Y-47555000D03*
%TO.P,J7,17,Pin_17*%
%TO.N,unconnected-(J7-Pad17)*%
X114675000Y-50095000D03*
%TO.P,J7,18,Pin_18*%
%TO.N,unconnected-(J7-Pad18)*%
X112135000Y-50095000D03*
%TO.P,J7,19,Pin_19*%
%TO.N,unconnected-(J7-Pad19)*%
X114675000Y-52635000D03*
%TO.P,J7,20,Pin_20*%
%TO.N,unconnected-(J7-Pad20)*%
X112135000Y-52635000D03*
%TO.P,J7,21,Pin_21*%
%TO.N,unconnected-(J7-Pad21)*%
X114675000Y-55175000D03*
%TO.P,J7,22,Pin_22*%
%TO.N,unconnected-(J7-Pad22)*%
X112135000Y-55175000D03*
%TO.P,J7,23,Pin_23*%
%TO.N,unconnected-(J7-Pad23)*%
X114675000Y-57715000D03*
%TO.P,J7,24,Pin_24*%
%TO.N,unconnected-(J7-Pad24)*%
X112135000Y-57715000D03*
%TO.P,J7,25,Pin_25*%
%TO.N,unconnected-(J7-Pad25)*%
X114675000Y-60255000D03*
%TO.P,J7,26,Pin_26*%
%TO.N,unconnected-(J7-Pad26)*%
X112135000Y-60255000D03*
%TO.P,J7,27,Pin_27*%
%TO.N,unconnected-(J7-Pad27)*%
X114675000Y-62795000D03*
%TO.P,J7,28,Pin_28*%
%TO.N,unconnected-(J7-Pad28)*%
X112135000Y-62795000D03*
%TO.P,J7,29,Pin_29*%
%TO.N,unconnected-(J7-Pad29)*%
X114675000Y-65335000D03*
%TO.P,J7,30,Pin_30*%
%TO.N,unconnected-(J7-Pad30)*%
X112135000Y-65335000D03*
%TO.P,J7,31,Pin_31*%
%TO.N,unconnected-(J7-Pad31)*%
X114675000Y-67875000D03*
%TO.P,J7,32,Pin_32*%
%TO.N,unconnected-(J7-Pad32)*%
X112135000Y-67875000D03*
%TO.P,J7,33,Pin_33*%
%TO.N,unconnected-(J7-Pad33)*%
X114675000Y-70415000D03*
%TO.P,J7,34,Pin_34*%
%TO.N,unconnected-(J7-Pad34)*%
X112135000Y-70415000D03*
%TO.P,J7,35,Pin_35*%
%TO.N,unconnected-(J7-Pad35)*%
X114675000Y-72955000D03*
%TO.P,J7,36,Pin_36*%
%TO.N,unconnected-(J7-Pad36)*%
X112135000Y-72955000D03*
%TO.P,J7,37,Pin_37*%
%TO.N,unconnected-(J7-Pad37)*%
X114675000Y-75495000D03*
%TO.P,J7,38,Pin_38*%
%TO.N,unconnected-(J7-Pad38)*%
X112135000Y-75495000D03*
%TO.P,J7,39,Pin_39*%
%TO.N,unconnected-(J7-Pad39)*%
X114675000Y-78035000D03*
%TO.P,J7,40,Pin_40*%
%TO.N,unconnected-(J7-Pad40)*%
X112135000Y-78035000D03*
%TD*%
D56*
%TO.N,/GPIO33*%
X95550000Y-28300000D03*
X109750000Y-28550000D03*
X48900004Y-65799995D03*
D57*
X104000000Y-80150000D03*
D56*
%TO.N,/ADC1_CH7*%
X46300009Y-65899995D03*
%TO.N,/ADC2_CH7*%
X52700000Y-65700000D03*
%TO.N,VDD3V3*%
X34649994Y-75700001D03*
X60600006Y-23600001D03*
X42150005Y-66899993D03*
X44199988Y-66899993D03*
X45650000Y-66900000D03*
X49000004Y-76550012D03*
X74200004Y-48800004D03*
%TO.N,5V*%
X55650003Y-27250009D03*
X85449994Y-52450009D03*
X66950006Y-57849999D03*
X46550000Y-39500000D03*
%TO.N,Earth*%
X83050000Y-26900000D03*
X51850000Y-28700000D03*
X43250000Y-55950000D03*
X106350003Y-63799999D03*
X105500000Y-57350000D03*
X83300000Y-33150000D03*
X78450000Y-37100000D03*
X43250000Y-57850000D03*
X43250000Y-58750000D03*
X107250000Y-57350000D03*
X50150000Y-28700000D03*
X66300000Y-34600000D03*
X62950000Y-45700000D03*
X52800000Y-29650000D03*
X46650000Y-74500000D03*
X106350000Y-57350000D03*
X57750000Y-61350000D03*
X51900000Y-29650000D03*
X64500000Y-25300000D03*
X51000000Y-28700000D03*
X60400000Y-37850000D03*
X70100000Y-43400000D03*
X66100000Y-24950000D03*
X43250000Y-57000000D03*
X38700000Y-65650000D03*
X42000000Y-75650000D03*
X70100000Y-41450000D03*
X77750000Y-52100000D03*
X60400000Y-37150000D03*
X38699999Y-45491400D03*
X97349996Y-32400011D03*
X43250000Y-54050000D03*
X43250000Y-54900000D03*
X61550000Y-42750000D03*
%TO.N,/CS*%
X50149989Y-45500011D03*
X52199997Y-35750000D03*
%TO.N,/SDA*%
X56600000Y-42243297D03*
X69250001Y-52099997D03*
X82099988Y-49700002D03*
%TO.N,/SCL*%
X43299990Y-42699991D03*
X56600000Y-43100000D03*
X69199989Y-53350008D03*
X47600000Y-42900000D03*
X41250006Y-45491400D03*
X81300000Y-50253100D03*
%TO.N,/GPIO15*%
X63049988Y-53050008D03*
X58100011Y-51099999D03*
X63049988Y-49800002D03*
%TO.N,/CLK*%
X48850000Y-45450000D03*
X54299993Y-35750000D03*
%TO.N,/MOSI*%
X39950009Y-45491400D03*
X41299994Y-42650000D03*
%TO.N,/GPIO12*%
X58600010Y-70500000D03*
%TO.N,/GPIO13*%
X58300010Y-60100007D03*
X61649991Y-60100007D03*
%TO.N,/RX2*%
X113300000Y-26830600D03*
%TO.N,/GPIO32*%
X97549995Y-81550002D03*
X47600006Y-65799995D03*
%TO.N,Net-(J8-Pad2)*%
X74049992Y-37900000D03*
X74049992Y-42824502D03*
%TO.N,Net-(J8-Pad3)*%
X75149989Y-37900000D03*
X60450000Y-42100000D03*
%TO.N,Net-(J8-Pad5)*%
X77350000Y-43500000D03*
X77350000Y-37850000D03*
X70100012Y-46749995D03*
X61450000Y-44050000D03*
%TO.N,Net-(R9-Pad2)*%
X52700000Y-41450000D03*
X61400000Y-41450000D03*
%TO.N,Net-(R11-Pad2)*%
X52199997Y-40299996D03*
X71150000Y-44050000D03*
%TO.N,/ADC2_CH6*%
X53950000Y-65600000D03*
%TO.N,/ADC2_CH0*%
X72900007Y-60374505D03*
%TO.N,/GPIO0*%
X44320511Y-44550000D03*
X55199991Y-48700004D03*
%TD*%
D58*
%TO.N,/GPIO34*%
X45045000Y-67695000D02*
X45045000Y-64150000D01*
X49900000Y-79700000D02*
X45045000Y-74845000D01*
X49100000Y-83000000D02*
X49100000Y-81900000D01*
X45100000Y-68150000D02*
X45045000Y-68205000D01*
X49100000Y-81900000D02*
X49900000Y-81100000D01*
X45045000Y-68205000D02*
X45045000Y-67695000D01*
X49900000Y-81100000D02*
X49900000Y-79700000D01*
X46650000Y-68150000D02*
X45100000Y-68150000D01*
X45045000Y-74845000D02*
X45045000Y-68205000D01*
%TO.N,/GPIO33*%
X94700000Y-28300000D02*
X95550000Y-28300000D01*
X91400000Y-25000000D02*
X94700000Y-28300000D01*
X104450000Y-75250000D02*
X104000000Y-75700000D01*
X89500000Y-25000000D02*
X91400000Y-25000000D01*
X108915340Y-41850000D02*
X108915340Y-70784660D01*
X48855000Y-64150000D02*
X48855000Y-65755000D01*
X109750000Y-37850000D02*
X108915340Y-38684660D01*
X109750000Y-28550000D02*
X109750000Y-37850000D01*
X108915340Y-70784660D02*
X104450000Y-75250000D01*
X104000000Y-75700000D02*
X104000000Y-80150000D01*
X108915340Y-38684660D02*
X108915340Y-41850000D01*
X48855000Y-65755000D02*
X48900000Y-65800000D01*
%TO.N,/GPIO25*%
X52200000Y-71100000D02*
X52850000Y-71750000D01*
X52850000Y-71750000D02*
X52850000Y-73400000D01*
X52200000Y-67850000D02*
X52200000Y-71100000D01*
X50125000Y-64150000D02*
X50125000Y-65775000D01*
X50125000Y-65775000D02*
X52200000Y-67850000D01*
%TO.N,/GPIO26*%
X54600000Y-72800000D02*
X53200000Y-71400000D01*
X53200000Y-71400000D02*
X53200000Y-68150000D01*
X54600000Y-74400000D02*
X54600000Y-72800000D01*
X54200000Y-74800000D02*
X54600000Y-74400000D01*
X52850000Y-74800000D02*
X54200000Y-74800000D01*
X53200000Y-68150000D02*
X51395000Y-66345000D01*
X51395000Y-66345000D02*
X51395000Y-64150000D01*
%TO.N,/ADC1_CH7*%
X46315000Y-64150000D02*
X46315000Y-65885000D01*
X46315000Y-65885000D02*
X46300000Y-65900000D01*
%TO.N,Net-(D1-Pad2)*%
X56700000Y-68900000D02*
X56700000Y-74012500D01*
X54650000Y-68150000D02*
X55950000Y-68150000D01*
X56700000Y-74012500D02*
X56612500Y-74100000D01*
X55950000Y-68150000D02*
X56700000Y-68900000D01*
%TO.N,/ADC2_CH7*%
X52700000Y-65700000D02*
X52700000Y-64185000D01*
X52700000Y-64185000D02*
X52665000Y-64150000D01*
D59*
%TO.N,VDD3V3*%
X53600000Y-83000000D02*
X58100000Y-83000000D01*
D58*
X42150000Y-66900000D02*
X44200000Y-66900000D01*
X65050000Y-37800000D02*
X65950000Y-38700000D01*
X38850000Y-68500000D02*
X39965000Y-67385000D01*
X64487500Y-34387500D02*
X65050000Y-34950000D01*
X39965000Y-67385000D02*
X39965000Y-64150000D01*
D59*
X53600000Y-83000000D02*
X53600000Y-81700000D01*
D58*
X34650000Y-73900000D02*
X34650000Y-72250000D01*
X65050000Y-51200000D02*
X65050000Y-57250000D01*
X67450000Y-59650000D02*
X77550000Y-59650000D01*
D59*
X34650000Y-75700000D02*
X34650000Y-73900000D01*
X76600000Y-83000000D02*
X83450000Y-83000000D01*
D58*
X78150000Y-65150000D02*
X77000000Y-66300000D01*
X64850000Y-66300000D02*
X69800000Y-66300000D01*
D59*
X83450000Y-83000000D02*
X85100000Y-81350000D01*
D58*
X62187500Y-34350000D02*
X62150000Y-34387500D01*
X38850000Y-70950000D02*
X38850000Y-68500000D01*
D59*
X52500000Y-80600000D02*
X51550000Y-79650000D01*
D58*
X48700000Y-68150000D02*
X50700000Y-68150000D01*
X67200000Y-51200000D02*
X65050000Y-51200000D01*
X77550000Y-59650000D02*
X78150000Y-60250000D01*
X55150000Y-77550000D02*
X58100000Y-80500000D01*
D59*
X76550000Y-79000000D02*
X76550000Y-82950000D01*
X49850000Y-76550000D02*
X49000000Y-76550000D01*
D58*
X62150000Y-34387500D02*
X64487500Y-34387500D01*
D59*
X58100000Y-83000000D02*
X67950000Y-83000000D01*
D58*
X54650000Y-71850000D02*
X55150000Y-72350000D01*
X48700000Y-67200000D02*
X48700000Y-68150000D01*
X68862500Y-36687500D02*
X68862500Y-38700000D01*
X77000000Y-66300000D02*
X74750000Y-66300000D01*
D59*
X67950000Y-83000000D02*
X76600000Y-83000000D01*
D58*
X60600000Y-25300000D02*
X60600000Y-23600000D01*
D59*
X68000000Y-79000000D02*
X68000000Y-82950000D01*
D58*
X58100000Y-80500000D02*
X58100000Y-83000000D01*
X72900000Y-50100000D02*
X68300000Y-50100000D01*
D59*
X51550000Y-79650000D02*
X51550000Y-78250000D01*
D58*
X74200000Y-48800000D02*
X72900000Y-50100000D01*
X48400000Y-66900000D02*
X48700000Y-67200000D01*
X68821000Y-40794200D02*
X68821000Y-38741500D01*
X76550000Y-82950000D02*
X76600000Y-83000000D01*
X78150000Y-60250000D02*
X78150000Y-65150000D01*
X71950000Y-33600000D02*
X75700000Y-33600000D01*
X35950000Y-70950000D02*
X38850000Y-70950000D01*
X69800000Y-66300000D02*
X74750000Y-66300000D01*
X55150000Y-72350000D02*
X55150000Y-77550000D01*
X68300000Y-50100000D02*
X67200000Y-51200000D01*
X65050000Y-57250000D02*
X67450000Y-59650000D01*
X65050000Y-34950000D02*
X65050000Y-37800000D01*
X45650000Y-66900000D02*
X48400000Y-66900000D01*
X34650000Y-72250000D02*
X35950000Y-70950000D01*
X75700000Y-33600000D02*
X76250000Y-34150000D01*
X65950000Y-38700000D02*
X68862500Y-38700000D01*
X60600000Y-25300000D02*
X60600000Y-31600000D01*
X54650000Y-70150000D02*
X54650000Y-71850000D01*
X76250000Y-34150000D02*
X76250000Y-35625000D01*
X68000000Y-82950000D02*
X67950000Y-83000000D01*
D59*
X51550000Y-78250000D02*
X49850000Y-76550000D01*
D58*
X68821000Y-38741500D02*
X68862500Y-38700000D01*
D59*
X53600000Y-81700000D02*
X52500000Y-80600000D01*
D58*
X68862500Y-36687500D02*
X71950000Y-33600000D01*
D59*
X85100000Y-81350000D02*
X85100000Y-79000000D01*
D58*
%TO.N,5V*%
X104384180Y-52465820D02*
X86515820Y-52465820D01*
X108465823Y-28834182D02*
X108465823Y-28950006D01*
X109684180Y-27615820D02*
X108465820Y-28834180D01*
X114675000Y-29775000D02*
X114675000Y-27890820D01*
X71220000Y-55900000D02*
X71225000Y-55905000D01*
X45300000Y-39500000D02*
X46550000Y-39500000D01*
X54137500Y-26950000D02*
X54137500Y-26300000D01*
X66950000Y-55900000D02*
X71220000Y-55900000D01*
X104399994Y-52450009D02*
X104384170Y-52465808D01*
X54100000Y-26250000D02*
X53290000Y-25440000D01*
X108465820Y-48384180D02*
X104400000Y-52450000D01*
X114675000Y-27890820D02*
X114400000Y-27615820D01*
X108465820Y-28950000D02*
X108465820Y-48384180D01*
X53290000Y-25440000D02*
X53290000Y-24150000D01*
X66950006Y-57849999D02*
X66950006Y-55899990D01*
X114400000Y-27615820D02*
X109684180Y-27615820D01*
X86515829Y-52465808D02*
X85465818Y-52465808D01*
X54137500Y-27250000D02*
X55650000Y-27250000D01*
%TO.N,Earth*%
X67325000Y-24950000D02*
X67350000Y-24975000D01*
X86825000Y-24975000D02*
X83050000Y-24975000D01*
X105560001Y-68979999D02*
X105560001Y-64589999D01*
X70100000Y-40750000D02*
X70100000Y-41450000D01*
X77750000Y-52100000D02*
X76180000Y-52100000D01*
X38700000Y-65650000D02*
X38700000Y-64155000D01*
X57735000Y-61365000D02*
X57750000Y-61350000D01*
X38700000Y-64155000D02*
X38695000Y-64150000D01*
X105560001Y-64589999D02*
X106350000Y-63800000D01*
X62950000Y-45700000D02*
X62962000Y-45688000D01*
X32925000Y-38125000D02*
X31800009Y-37000009D01*
X60150000Y-42750000D02*
X61550000Y-42750000D01*
X86850000Y-25000000D02*
X86825000Y-24975000D01*
X42000000Y-75650000D02*
X42000000Y-74062500D01*
X62962000Y-39512000D02*
X62962000Y-40800000D01*
X61550000Y-42750000D02*
X62962000Y-42750000D01*
X83300000Y-34575000D02*
X83300000Y-33150000D01*
X76180000Y-52100000D02*
X76175000Y-52095000D01*
X67775000Y-34600000D02*
X67800000Y-34575000D01*
X96560000Y-25350000D02*
X96560000Y-31610000D01*
X58600000Y-37512500D02*
X58600000Y-41200000D01*
X70100000Y-41450000D02*
X68838000Y-41450000D01*
X96560000Y-31610000D02*
X97350000Y-32400000D01*
X66300000Y-34600000D02*
X67775000Y-34600000D01*
X58600000Y-41200000D02*
X60150000Y-42750000D01*
X66100000Y-24950000D02*
X67325000Y-24950000D01*
X62900000Y-25300000D02*
X64500000Y-25300000D01*
X78450000Y-37100000D02*
X78450000Y-35625000D01*
X32925000Y-39350000D02*
X32925000Y-38125000D01*
X38695000Y-45505000D02*
X38700000Y-45500000D01*
X46650000Y-74500000D02*
X46650000Y-70150000D01*
X31800009Y-37000009D02*
X31800009Y-35749992D01*
X62150000Y-38700000D02*
X62962000Y-39512000D01*
X83050000Y-26900000D02*
X83050000Y-24975000D01*
X70937500Y-39912500D02*
X70100000Y-40750000D01*
X70100000Y-43400000D02*
X68838000Y-43400000D01*
X70937500Y-38700000D02*
X70937500Y-39912500D01*
X38695000Y-47150000D02*
X38695000Y-45505000D01*
X56205000Y-61365000D02*
X57735000Y-61365000D01*
X62150000Y-37512500D02*
X62150000Y-38700000D01*
X62962000Y-45688000D02*
X62962000Y-44700000D01*
X42000000Y-74062500D02*
X41987500Y-74050000D01*
%TO.N,/GPIO2*%
X59587500Y-74100000D02*
X59587500Y-50987500D01*
X58535000Y-49935000D02*
X56205000Y-49935000D01*
X59587500Y-50987500D02*
X58535000Y-49935000D01*
%TO.N,/CS*%
X52200000Y-35750003D02*
X52200000Y-37050000D01*
X52199997Y-35750000D02*
X52200000Y-35750003D01*
X50125000Y-47150000D02*
X50125000Y-45525000D01*
X50125000Y-45525000D02*
X50150000Y-45500000D01*
%TO.N,/SDA*%
X84600000Y-51100000D02*
X84600000Y-53000000D01*
X92950000Y-55650000D02*
X92950000Y-72900000D01*
X91850000Y-54550000D02*
X92950000Y-55650000D01*
X45300000Y-41500000D02*
X47000000Y-41500000D01*
X45300000Y-41500000D02*
X45300000Y-43650000D01*
X82100000Y-49700000D02*
X83200000Y-49700000D01*
X90100000Y-75750000D02*
X90100000Y-79000000D01*
X47743297Y-42243297D02*
X56600000Y-42243297D01*
X86150000Y-54550000D02*
X91850000Y-54550000D01*
X92950000Y-72900000D02*
X90100000Y-75750000D01*
X69250000Y-52100000D02*
X71220000Y-52100000D01*
X45045000Y-43905000D02*
X45045000Y-47150000D01*
X83200000Y-49700000D02*
X84600000Y-51100000D01*
X47000000Y-41500000D02*
X47743297Y-42243297D01*
X71220000Y-52100000D02*
X71225000Y-52095000D01*
X84600000Y-53000000D02*
X86150000Y-54550000D01*
X45300000Y-43650000D02*
X45045000Y-43905000D01*
%TO.N,/SCL*%
X81300000Y-50253100D02*
X81870868Y-50253100D01*
X43300000Y-42700000D02*
X43300000Y-41500000D01*
X47600000Y-42900000D02*
X47600480Y-42900480D01*
X92500480Y-55836198D02*
X92500480Y-72349520D01*
X41235000Y-47150000D02*
X41235000Y-45515000D01*
X84150480Y-53186198D02*
X85964282Y-55000000D01*
X71210000Y-53350000D02*
X71225000Y-53365000D01*
X82903113Y-50253113D02*
X84150480Y-51500480D01*
X69200000Y-53350000D02*
X71210000Y-53350000D01*
X55100480Y-42900480D02*
X55300000Y-43100000D01*
X87600000Y-77250000D02*
X87600000Y-79000000D01*
X55300000Y-43100000D02*
X56600000Y-43100000D01*
X41235000Y-45515000D02*
X41250000Y-45500000D01*
X81870868Y-50253100D02*
X81870881Y-50253113D01*
X81870881Y-50253113D02*
X82903113Y-50253113D01*
X84150480Y-51500480D02*
X84150480Y-53186198D01*
X85964282Y-55000000D02*
X91664282Y-55000000D01*
X92500480Y-72349520D02*
X87600000Y-77250000D01*
X91664282Y-55000000D02*
X92500480Y-55836198D01*
X47600480Y-42900480D02*
X55100480Y-42900480D01*
%TO.N,/GPIO15*%
X63050000Y-53050000D02*
X63050000Y-51200000D01*
X58100000Y-51100000D02*
X56310000Y-51100000D01*
X63050000Y-51200000D02*
X63050000Y-49800000D01*
X56310000Y-51100000D02*
X56205000Y-51205000D01*
%TO.N,/CLK*%
X48855000Y-47150000D02*
X48855000Y-45455000D01*
X54300000Y-35700000D02*
X54300000Y-37050000D01*
%TO.N,/MISO*%
X47585000Y-45815000D02*
X47585000Y-47150000D01*
X62550000Y-46400000D02*
X59999520Y-43849520D01*
X63450000Y-46050000D02*
X63100000Y-46400000D01*
X75750000Y-45164282D02*
X74864282Y-46050000D01*
X68838000Y-42750000D02*
X70250000Y-42750000D01*
X71850000Y-41150000D02*
X74800000Y-41150000D01*
X59999520Y-43849520D02*
X49550480Y-43849520D01*
X75750000Y-42100000D02*
X75750000Y-45164282D01*
X74864282Y-46050000D02*
X63450000Y-46050000D01*
X74800000Y-41150000D02*
X75750000Y-42100000D01*
X63100000Y-46400000D02*
X62550000Y-46400000D01*
X49550480Y-43849520D02*
X47585000Y-45815000D01*
X70250000Y-42750000D02*
X71850000Y-41150000D01*
%TO.N,/MOSI*%
X41299994Y-41500006D02*
X41300000Y-41500000D01*
X39965000Y-45515000D02*
X39965000Y-47150000D01*
X39950000Y-45500000D02*
X39965000Y-45515000D01*
X41299994Y-42650000D02*
X41299994Y-41500006D01*
%TO.N,/GPIO12*%
X58600010Y-65750010D02*
X58600010Y-70500000D01*
X57000000Y-64150000D02*
X58600010Y-65750010D01*
X55205000Y-64150000D02*
X57000000Y-64150000D01*
%TO.N,/GPIO13*%
X58300000Y-60100000D02*
X56210000Y-60100000D01*
X56210000Y-60100000D02*
X56205000Y-60095000D01*
X61650000Y-75950000D02*
X61650000Y-60100000D01*
X60500000Y-77100000D02*
X61650000Y-75950000D01*
X60500000Y-79000000D02*
X60500000Y-77100000D01*
D60*
%TO.N,VCCDC*%
X69750000Y-26100000D02*
X69750000Y-23150000D01*
X71400000Y-27750000D02*
X69750000Y-26100000D01*
X58300000Y-21900000D02*
X58300000Y-25300000D01*
X92870000Y-37820000D02*
X98600000Y-43550000D01*
X47962500Y-26137500D02*
X48700000Y-25400000D01*
X47400000Y-33250000D02*
X47400000Y-30762500D01*
X85000000Y-29900000D02*
X82850000Y-27750000D01*
X68500000Y-21900000D02*
X63650000Y-21900000D01*
X47387500Y-29012500D02*
X47962500Y-28437500D01*
X47962500Y-27250000D02*
X47962500Y-26137500D01*
X47962500Y-28437500D02*
X47962500Y-27250000D01*
X98600000Y-48200000D02*
X102600000Y-48200000D01*
X82850000Y-27750000D02*
X71400000Y-27750000D01*
X87100000Y-35600000D02*
X85000000Y-33500000D01*
X48710000Y-24150000D02*
X48710000Y-22690000D01*
X49500000Y-21900000D02*
X59450000Y-21900000D01*
X48710000Y-25390000D02*
X48710000Y-24150000D01*
X85000000Y-33500000D02*
X85000000Y-29900000D01*
X102600000Y-48200000D02*
X104600000Y-46200000D01*
X63650000Y-21900000D02*
X59500000Y-21900000D01*
X47387500Y-30750000D02*
X47387500Y-29012500D01*
X41007500Y-34950000D02*
X45700000Y-34950000D01*
X98600000Y-43550000D02*
X98600000Y-48200000D01*
D58*
X87350000Y-35850000D02*
X87100000Y-35600000D01*
D60*
X48710000Y-22690000D02*
X49500000Y-21900000D01*
X87350000Y-37820000D02*
X87350000Y-35850000D01*
X87350000Y-37820000D02*
X92870000Y-37820000D01*
X69750000Y-23150000D02*
X68500000Y-21900000D01*
X45700000Y-34950000D02*
X47400000Y-33250000D01*
D58*
X47400000Y-30762500D02*
X47387500Y-30750000D01*
%TO.N,/EN*%
X43550000Y-81750000D02*
X42950000Y-81150000D01*
X42400000Y-70950000D02*
X40850000Y-70950000D01*
X40850000Y-68750000D02*
X41235000Y-68365000D01*
X43650000Y-75300000D02*
X43650000Y-72200000D01*
X40850000Y-70950000D02*
X40850000Y-68750000D01*
X43550000Y-83000000D02*
X43550000Y-81750000D01*
X41235000Y-68365000D02*
X41235000Y-64150000D01*
X43650000Y-72200000D02*
X42400000Y-70950000D01*
X42950000Y-81150000D02*
X42950000Y-76000000D01*
X42950000Y-76000000D02*
X43650000Y-75300000D01*
%TO.N,/TX2*%
X108500000Y-26250000D02*
X113651618Y-26250000D01*
X51395000Y-47150000D02*
X51395000Y-45655000D01*
X82803106Y-47303106D02*
X86950000Y-51450000D01*
X116600000Y-37000000D02*
X116205000Y-37395000D01*
X62803586Y-47303106D02*
X82803106Y-47303106D01*
X51395000Y-45655000D02*
X52650000Y-44400000D01*
X103600000Y-51450000D02*
X107350000Y-47700000D01*
X107350000Y-47700000D02*
X107350000Y-27400000D01*
X116205000Y-37395000D02*
X114675000Y-37395000D01*
X114451618Y-27050000D02*
X115900000Y-27050000D01*
X107350000Y-27400000D02*
X108500000Y-26250000D01*
X86950000Y-51450000D02*
X103600000Y-51450000D01*
X59900480Y-44400000D02*
X62803586Y-47303106D01*
X52650000Y-44400000D02*
X59900480Y-44400000D01*
X116600000Y-27750000D02*
X116600000Y-37000000D01*
X113651618Y-26250000D02*
X114451618Y-27050000D01*
X115900000Y-27050000D02*
X116600000Y-27750000D01*
%TO.N,/RX2*%
X108016300Y-27983700D02*
X108016300Y-47669417D01*
X59764763Y-44900000D02*
X53500000Y-44900000D01*
X52665000Y-45735000D02*
X52665000Y-47150000D01*
X102899520Y-51899520D02*
X86749520Y-51899520D01*
X103785717Y-51900000D02*
X102900000Y-51900000D01*
X102900000Y-51900000D02*
X102899520Y-51899520D01*
X109200000Y-26800000D02*
X108016300Y-27983700D01*
X108016300Y-47669417D02*
X103785717Y-51900000D01*
X62617389Y-47752626D02*
X59764763Y-44900000D01*
X82602626Y-47752626D02*
X62617389Y-47752626D01*
X86749520Y-51899520D02*
X82602626Y-47752626D01*
X113269400Y-26800000D02*
X109200000Y-26800000D01*
X113300000Y-26830600D02*
X113269400Y-26800000D01*
X53500000Y-44900000D02*
X52665000Y-45735000D01*
%TO.N,/GPIO32*%
X110150000Y-80100000D02*
X110150000Y-43000000D01*
X110675000Y-42475000D02*
X112135000Y-42475000D01*
X47585000Y-65785000D02*
X47600000Y-65800000D01*
X47585000Y-64150000D02*
X47585000Y-65785000D01*
X97550000Y-81550000D02*
X108700000Y-81550000D01*
X110150000Y-43000000D02*
X110675000Y-42475000D01*
X108700000Y-81550000D02*
X110150000Y-80100000D01*
%TO.N,Net-(D2-Pad2)*%
X36650000Y-73900000D02*
X38862500Y-73900000D01*
X38862500Y-73900000D02*
X39012500Y-74050000D01*
%TO.N,Net-(J8-Pad2)*%
X74050000Y-37899992D02*
X74049992Y-37900000D01*
X73800000Y-44700000D02*
X68838000Y-44700000D01*
X74050000Y-44450000D02*
X73800000Y-44700000D01*
X74050000Y-42824500D02*
X74050000Y-44450000D01*
X74050000Y-35625000D02*
X74050000Y-37899992D01*
%TO.N,Net-(J8-Pad3)*%
X75149989Y-37900000D02*
X75150000Y-37899989D01*
X75150000Y-37899989D02*
X75150000Y-35625000D01*
X60450000Y-42100000D02*
X62962000Y-42100000D01*
%TO.N,Net-(J8-Pad5)*%
X77350000Y-37850000D02*
X77350000Y-35625000D01*
X62962000Y-44050000D02*
X61453154Y-44050000D01*
X74800005Y-46749995D02*
X77350000Y-44200000D01*
X70100012Y-46749995D02*
X74800005Y-46749995D01*
X77350000Y-44200000D02*
X77350000Y-43500000D01*
%TO.N,/D0*%
X79550000Y-40750000D02*
X79550000Y-35625000D01*
%TO.N,Net-(R9-Pad2)*%
X41800000Y-38000000D02*
X48300000Y-38000000D01*
X48300000Y-38000000D02*
X51750000Y-41450000D01*
X51750000Y-41450000D02*
X52700000Y-41450000D01*
X41300000Y-38500000D02*
X41800000Y-38000000D01*
X41300000Y-39500000D02*
X41300000Y-38500000D01*
X61400000Y-41450000D02*
X62962000Y-41450000D01*
%TO.N,Net-(R10-Pad2)*%
X54300000Y-39050000D02*
X55450000Y-39050000D01*
X55450000Y-39050000D02*
X59800000Y-43400000D01*
X59800000Y-43400000D02*
X62962000Y-43400000D01*
%TO.N,Net-(R11-Pad2)*%
X52200000Y-39050000D02*
X52200000Y-40300000D01*
X71150000Y-44050000D02*
X68838000Y-44050000D01*
%TO.N,Net-(R12-Pad2)*%
X68838000Y-42100000D02*
X70232218Y-42100000D01*
X73132218Y-39200000D02*
X74750000Y-39200000D01*
X74750000Y-39200000D02*
X78300000Y-42750000D01*
X78300000Y-42750000D02*
X79550000Y-42750000D01*
X70232218Y-42100000D02*
X73132218Y-39200000D01*
%TO.N,Net-(R15-Pad1)*%
X68350000Y-53900000D02*
X69085000Y-54635000D01*
X66950000Y-53900000D02*
X68350000Y-53900000D01*
X69085000Y-54635000D02*
X71225000Y-54635000D01*
%TO.N,Net-(U5-Pad1)*%
X79450000Y-71100000D02*
X80750000Y-71100000D01*
X80300000Y-56800000D02*
X80300000Y-65900000D01*
X78950000Y-67250000D02*
X78950000Y-70600000D01*
X79405000Y-55905000D02*
X80300000Y-56800000D01*
X78950000Y-70600000D02*
X79450000Y-71100000D01*
X76175000Y-55905000D02*
X79405000Y-55905000D01*
X80300000Y-65900000D02*
X78950000Y-67250000D01*
%TO.N,Net-(U5-Pad2)*%
X79735000Y-54635000D02*
X76175000Y-54635000D01*
X80750000Y-68560000D02*
X80750000Y-55650000D01*
X80750000Y-55650000D02*
X79735000Y-54635000D01*
%TO.N,Net-(BT1-Pad1)*%
X82450000Y-54700000D02*
X81100000Y-53350000D01*
X82450000Y-58750000D02*
X82450000Y-54700000D01*
X81100000Y-53350000D02*
X76190000Y-53350000D01*
X85128000Y-59200000D02*
X82900000Y-59200000D01*
X76190000Y-53350000D02*
X76175000Y-53365000D01*
X82900000Y-59200000D02*
X82450000Y-58750000D01*
%TO.N,/ADC2_CH6*%
X53935000Y-65585000D02*
X53935000Y-64150000D01*
X53950000Y-65600000D02*
X53935000Y-65585000D01*
%TO.N,/ADC2_CH0*%
X67514283Y-60350000D02*
X72875502Y-60350000D01*
X53935000Y-45765000D02*
X54350000Y-45350000D01*
X53935000Y-47150000D02*
X53935000Y-45765000D01*
X54350000Y-45350000D02*
X58800000Y-45350000D01*
X61700000Y-48250000D02*
X61700000Y-54535717D01*
X58800000Y-45350000D02*
X61700000Y-48250000D01*
X72875502Y-60350000D02*
X72900007Y-60374505D01*
X61700000Y-54535717D02*
X67514283Y-60350000D01*
%TO.N,/RXD*%
X38800000Y-44550000D02*
X41700000Y-44550000D01*
X35950000Y-41250000D02*
X37350000Y-41250000D01*
X35465000Y-40765000D02*
X35950000Y-41250000D01*
X37850000Y-41750000D02*
X37850000Y-43600000D01*
X42505000Y-45355000D02*
X42505000Y-47150000D01*
X37850000Y-43600000D02*
X38800000Y-44550000D01*
X37350000Y-41250000D02*
X37850000Y-41750000D01*
X41700000Y-44550000D02*
X42505000Y-45355000D01*
X35465000Y-39350000D02*
X35465000Y-40765000D01*
%TO.N,/TXD*%
X42100480Y-44100480D02*
X43775000Y-45775000D01*
X39000480Y-44100480D02*
X42100480Y-44100480D01*
X38500000Y-43600000D02*
X39000480Y-44100480D01*
X43775000Y-45775000D02*
X43775000Y-47150000D01*
X38500000Y-41350000D02*
X38500000Y-43600000D01*
X38005000Y-40855000D02*
X38500000Y-41350000D01*
X38005000Y-39350000D02*
X38005000Y-40855000D01*
%TO.N,Net-(D4-Pad2)*%
X88150000Y-50600000D02*
X92000000Y-50600000D01*
X92600000Y-50000000D02*
X92600000Y-46200000D01*
X87350000Y-47980000D02*
X87350000Y-49800000D01*
X92000000Y-50600000D02*
X92600000Y-50000000D01*
X87350000Y-49800000D02*
X88150000Y-50600000D01*
D60*
%TO.N,/NO*%
X104600000Y-34000000D02*
X104600000Y-30750000D01*
X104600000Y-30750000D02*
X101640000Y-27790000D01*
X101640000Y-27790000D02*
X101640000Y-25350000D01*
D58*
%TO.N,Net-(Q1-Pad2)*%
X87930000Y-29380000D02*
X87930000Y-32050000D01*
X89500000Y-27000000D02*
X86850000Y-27000000D01*
X86850000Y-28300000D02*
X87930000Y-29380000D01*
X86850000Y-27000000D02*
X86850000Y-28300000D01*
%TO.N,Net-(D3-Pad2)*%
X47950000Y-74800000D02*
X49350000Y-74800000D01*
X47400000Y-72200000D02*
X47400000Y-74250000D01*
X47400000Y-74250000D02*
X47950000Y-74800000D01*
X48650000Y-70950000D02*
X47400000Y-72200000D01*
X48650000Y-70150000D02*
X48650000Y-70950000D01*
%TO.N,Net-(D3-Pad1)*%
X49350000Y-71850000D02*
X49350000Y-73400000D01*
X50650000Y-70150000D02*
X50650000Y-70550000D01*
X50650000Y-70550000D02*
X49350000Y-71850000D01*
%TO.N,/GPIO0*%
X43650000Y-43450000D02*
X44350000Y-44150000D01*
X39900000Y-42450000D02*
X40900000Y-43450000D01*
X44350000Y-44550000D02*
X44320500Y-44550000D01*
X39900000Y-38300000D02*
X39900000Y-42450000D01*
X44350000Y-44150000D02*
X44350000Y-44550000D01*
X40900000Y-43450000D02*
X43650000Y-43450000D01*
X35200009Y-35749992D02*
X36899992Y-35749992D01*
X36899992Y-35749992D02*
X39100000Y-37950000D01*
X55200000Y-48700000D02*
X55200000Y-47155000D01*
X39550000Y-37950000D02*
X39900000Y-38300000D01*
X55200000Y-47155000D02*
X55205000Y-47150000D01*
X39100000Y-37950000D02*
X39550000Y-37950000D01*
%TD*%
%TA.AperFunction,Conductor*%
%TO.N,5V*%
G36*
X45942121Y-38920002D02*
G01*
X45988614Y-38973658D01*
X46000000Y-39026000D01*
X46000000Y-39974000D01*
X45979998Y-40042121D01*
X45926342Y-40088614D01*
X45874000Y-40100000D01*
X42726000Y-40100000D01*
X42657879Y-40079998D01*
X42611386Y-40026342D01*
X42600000Y-39974000D01*
X42600000Y-39026000D01*
X42620002Y-38957879D01*
X42673658Y-38911386D01*
X42726000Y-38900000D01*
X45874000Y-38900000D01*
X45942121Y-38920002D01*
G37*
%TD.AperFunction*%
%TD*%
%TA.AperFunction,Conductor*%
%TO.N,VDD3V3*%
G36*
X63942121Y-30620002D02*
G01*
X63988614Y-30673658D01*
X64000000Y-30726000D01*
X64000000Y-34924000D01*
X63979998Y-34992121D01*
X63926342Y-35038614D01*
X63874000Y-35050000D01*
X54576000Y-35050000D01*
X54507879Y-35029998D01*
X54461386Y-34976342D01*
X54450000Y-34924000D01*
X54450000Y-30726000D01*
X54470002Y-30657879D01*
X54523658Y-30611386D01*
X54576000Y-30600000D01*
X63874000Y-30600000D01*
X63942121Y-30620002D01*
G37*
%TD.AperFunction*%
%TD*%
%TA.AperFunction,Conductor*%
%TO.N,Earth*%
G36*
X52542121Y-26520002D02*
G01*
X52588614Y-26573658D01*
X52600000Y-26626000D01*
X52600000Y-29050000D01*
X53424000Y-29050000D01*
X53492121Y-29070002D01*
X53538614Y-29123658D01*
X53550000Y-29176000D01*
X53550000Y-31974000D01*
X53529998Y-32042121D01*
X53476342Y-32088614D01*
X53424000Y-32100000D01*
X49976000Y-32100000D01*
X49907879Y-32079998D01*
X49861386Y-32026342D01*
X49850000Y-31974000D01*
X49850000Y-29100000D01*
X49576000Y-29100000D01*
X49507879Y-29079998D01*
X49461386Y-29026342D01*
X49450000Y-28974000D01*
X49450000Y-26626000D01*
X49470002Y-26557879D01*
X49523658Y-26511386D01*
X49576000Y-26500000D01*
X52474000Y-26500000D01*
X52542121Y-26520002D01*
G37*
%TD.AperFunction*%
%TD*%
%TA.AperFunction,Conductor*%
%TO.N,Earth*%
G36*
X107992121Y-57020002D02*
G01*
X108038614Y-57073658D01*
X108050000Y-57126000D01*
X108050000Y-60324000D01*
X108029998Y-60392121D01*
X107976342Y-60438614D01*
X107924000Y-60450000D01*
X105126000Y-60450000D01*
X105057879Y-60429998D01*
X105011386Y-60376342D01*
X105000000Y-60324000D01*
X105000000Y-57126000D01*
X105020002Y-57057879D01*
X105073658Y-57011386D01*
X105126000Y-57000000D01*
X107924000Y-57000000D01*
X107992121Y-57020002D01*
G37*
%TD.AperFunction*%
%TD*%
%TA.AperFunction,Conductor*%
%TO.N,Earth*%
G36*
X48692121Y-53570002D02*
G01*
X48738614Y-53623658D01*
X48750000Y-53676000D01*
X48750000Y-59124000D01*
X48729998Y-59192121D01*
X48676342Y-59238614D01*
X48624000Y-59250000D01*
X42726000Y-59250000D01*
X42657879Y-59229998D01*
X42611386Y-59176342D01*
X42600000Y-59124000D01*
X42600000Y-53676000D01*
X42620002Y-53607879D01*
X42673658Y-53561386D01*
X42726000Y-53550000D01*
X48624000Y-53550000D01*
X48692121Y-53570002D01*
G37*
%TD.AperFunction*%
%TD*%
%TA.AperFunction,Conductor*%
%TO.N,Earth*%
G36*
X63442121Y-36870002D02*
G01*
X63488614Y-36923658D01*
X63500000Y-36976000D01*
X63500000Y-38024000D01*
X63479998Y-38092121D01*
X63426342Y-38138614D01*
X63374000Y-38150000D01*
X57376000Y-38150000D01*
X57307879Y-38129998D01*
X57261386Y-38076342D01*
X57250000Y-38024000D01*
X57250000Y-36976000D01*
X57270002Y-36907879D01*
X57323658Y-36861386D01*
X57376000Y-36850000D01*
X63374000Y-36850000D01*
X63442121Y-36870002D01*
G37*
%TD.AperFunction*%
%TD*%
M02*
